<?xml version="1.0" encoding="UTF-8"?>
<svg version="1.1" xmlns="http://www.w3.org/2000/svg" width="1024" height="1024">
<path d="M0 0 C1.3246131 -0.00452395 1.3246131 -0.00452395 2.67598605 -0.0091393 C4.14313453 -0.00648509 4.14313453 -0.00648509 5.63992238 -0.00377727 C6.67709393 -0.0058299 7.71426548 -0.00788253 8.78286648 -0.00999737 C12.2990792 -0.01570451 15.8152532 -0.01420557 19.33146977 -0.0127914 C21.86154762 -0.01537291 24.39162505 -0.01838546 26.92170191 -0.0217948 C33.17215647 -0.02904214 39.42259872 -0.03156864 45.673057 -0.03212385 C53.15600286 -0.03303597 60.63894078 -0.03969897 68.12188324 -0.04647068 C86.21040474 -0.06254878 104.29892541 -0.06843597 122.38745278 -0.07321942 C130.94062581 -0.07555352 139.49379818 -0.07915596 148.04697069 -0.0829148 C177.31194224 -0.09575179 206.57691341 -0.10647095 235.84188771 -0.1099174 C237.67980054 -0.11013904 239.51771336 -0.11036082 241.35562618 -0.11058275 C243.19803942 -0.1108034 245.04045266 -0.11102388 246.88286591 -0.1112442 C250.57921449 -0.11168676 254.27556308 -0.11213387 257.97191167 -0.11258388 C259.3466363 -0.11274796 259.3466363 -0.11274796 260.74913314 -0.11291536 C290.4739506 -0.11654694 320.19874368 -0.13247003 349.92355179 -0.15577424 C381.33306797 -0.18035434 412.7425702 -0.19408939 444.15209627 -0.19528532 C447.59819166 -0.19545678 451.04428705 -0.19567221 454.49038243 -0.19591975 C455.33893929 -0.19597552 456.18749615 -0.19603129 457.06176685 -0.19608875 C470.73460912 -0.19724078 484.40742644 -0.20827568 498.08026028 -0.22280681 C511.81611273 -0.23715279 525.5519331 -0.24041956 539.28779098 -0.23236683 C547.45386011 -0.22790159 555.61982587 -0.23180675 563.78588148 -0.24760534 C569.87531687 -0.25846607 575.96463325 -0.25374247 582.05407301 -0.24283347 C584.5238224 -0.24086317 586.99358202 -0.24401569 589.46331701 -0.25267783 C592.80897879 -0.26367352 596.15410884 -0.2563511 599.49975514 -0.2442863 C600.46848947 -0.25188149 601.43722379 -0.25947669 602.4353137 -0.26730204 C608.62451943 -0.21880442 612.91337183 0.69078238 617.79808354 4.7839005 C622.56533177 10.11598856 624.81527663 15.30989351 626.82152104 22.1276505 C627.34552495 23.87755284 627.34552495 23.87755284 627.88011479 25.66280675 C629.27560892 30.44224632 630.60748472 35.22779887 631.78636479 40.0651505 C632.7809977 44.07982432 633.99363169 48.00381475 635.25902104 51.9401505 C636.67322958 56.40046485 638.05843345 60.85400795 639.25902104 65.3776505 C642.20675419 76.46514678 645.66301726 87.42448103 649.07152104 98.3776505 C650.25625539 102.20861525 651.33502156 106.02953422 652.26683354 109.92843175 C653.32596981 114.12768326 654.56007752 118.27911121 655.75902104 122.4401505 C656.74865944 125.87477788 657.7231449 129.31338814 658.69652104 132.7526505 C660.63888138 139.55861945 662.67002462 146.33690806 664.71556401 153.11251378 C667.26596169 161.56607911 669.60246664 170.05738629 671.82152104 178.604213 C672.66056445 181.56052999 673.65073373 184.29414843 674.82152104 187.1276505 C675.28896375 188.93064378 675.7524563 190.73482621 676.18870854 192.54561925 C677.03002936 195.97841593 677.92133903 199.39744013 678.82152104 202.8151505 C679.15152104 204.07714269 679.48152104 205.33913487 679.82152104 206.63936925 C680.665365 209.58293428 681.67283169 212.29727994 682.82152104 215.1276505 C689.09051262 235.05614208 687.68910814 259.25021086 678.82152104 278.1276505 C678.38968511 279.08155675 677.95784917 280.035463 677.51292729 281.0182755 C674.04457508 288.34975172 669.80455417 294.74250886 664.82152104 301.1276505 C664.12284917 302.05706456 663.42417729 302.98647862 662.70433354 303.94405675 C662.08300542 304.66464269 661.46167729 305.38522862 660.82152104 306.1276505 C660.16152104 306.1276505 659.50152104 306.1276505 658.82152104 306.1276505 C658.16152104 307.4476505 657.50152104 308.7676505 656.82152104 310.1276505 C656.16152104 310.1276505 655.50152104 310.1276505 654.82152104 310.1276505 C654.82152104 310.7876505 654.82152104 311.4476505 654.82152104 312.1276505 C652.70433354 313.854213 652.70433354 313.854213 649.94652104 315.7526505 C648.58913823 316.70011144 648.58913823 316.70011144 647.20433354 317.666713 C644.82152104 319.1276505 644.82152104 319.1276505 642.82152104 319.1276505 C642.82152104 319.7876505 642.82152104 320.4476505 642.82152104 321.1276505 C641.40823976 321.94602492 639.99073759 322.75711269 638.57152104 323.5651505 C637.78261479 324.01761144 636.99370854 324.47007237 636.18089604 324.93624425 C633.82152104 326.1276505 633.82152104 326.1276505 629.82152104 327.1276505 C629.49152104 447.5776505 629.16152104 568.0276505 628.82152104 692.1276505 C645.65152104 692.1276505 662.48152104 692.1276505 679.82152104 692.1276505 C686.82960928 695.63169462 686.82960928 695.63169462 689.19652104 701.00655675 C690.49523788 705.41407703 689.42952758 708.85373204 687.50902104 712.8776505 C685.17394518 715.99108499 683.27092605 717.90855678 679.33161635 718.50402734 C677.91576613 718.50500347 677.91576613 718.50500347 676.47131288 718.50599933 C675.37733082 718.51402233 674.28334876 718.52204534 673.15621573 718.53031147 C671.95234502 718.52385966 670.74847432 718.51740786 669.50812268 718.51076055 C668.22551763 718.51572006 666.94291258 718.52067958 665.62144071 718.52578938 C662.04280025 718.5391887 658.46439228 718.53379242 654.88574543 718.52545588 C650.99945831 718.51967076 647.11321706 718.5311837 643.22694218 718.54051757 C636.40957201 718.55446216 629.5922682 718.55715432 622.77488637 718.55255818 C612.63731944 718.5457413 602.49981999 718.5559642 592.36226243 718.56951574 C573.20548921 718.59446426 554.0487438 718.59894291 534.89195694 718.59704977 C520.10186144 718.59567827 505.31177563 718.59948668 490.52168202 718.60697484 C488.39900574 718.60802516 486.27632945 718.60907278 484.15365317 718.6101177 C483.1000133 718.61063705 482.04637343 718.61115639 480.96080508 718.61169147 C479.90526839 718.61221161 478.84973171 718.61273176 477.76220906 718.61326766 C476.70494456 718.61379165 475.64768005 718.61431564 474.55837723 718.61485551 C444.80928011 718.62944519 415.06018656 718.63771848 385.31108594 718.63310552 C384.18889324 718.63293356 383.06670053 718.63276161 381.91050199 718.63258444 C376.22240871 718.63169551 370.53431544 718.6307507 364.84622218 718.62978643 C363.71649045 718.6295954 362.58675873 718.62940437 361.42279271 718.62920754 C359.13819914 718.62882045 356.85360557 718.62843013 354.56901201 718.62803657 C319.01497151 718.62206557 283.46099608 718.63750664 247.90697026 718.66964269 C207.98808909 718.70569312 168.06924918 718.72505593 128.15035069 718.72010398 C123.89656433 718.71963398 119.64277797 718.71922373 115.38899159 718.71885228 C114.34155407 718.7187499 113.29411654 718.71864751 112.21493849 718.71854202 C96.38065679 718.71734557 80.54641957 718.72933546 64.71214986 718.74799657 C46.7106617 718.76920117 28.70926705 718.77311667 10.70777477 718.75369698 C0.62647297 718.74334498 -9.45460101 718.7469062 -19.53588238 718.77022783 C-26.26331653 718.78441497 -32.99058135 718.78054979 -39.71800395 718.76178207 C-43.55553914 718.7515903 -47.39262955 718.7494102 -51.23013769 718.76910275 C-55.35824845 718.79009632 -59.48529029 718.77268227 -63.61339831 718.75126958 C-64.81258669 718.7635471 -66.01177506 718.77582463 -67.24730247 718.7884742 C-76.19794139 718.69069917 -76.19794139 718.69069917 -79.877859 715.70586181 C-83.02430127 712.1797718 -84.02024397 710.52539288 -84.55347896 705.8151505 C-84.11853593 701.53821077 -83.12826208 698.31404725 -80.17847896 695.1276505 C-63.16084105 686.61883154 -42.20477655 692.1276505 -23.17847896 692.1276505 C-23.17847896 571.3476505 -23.17847896 450.5676505 -23.17847896 326.1276505 C-25.15847896 325.7976505 -27.13847896 325.4676505 -29.17847896 325.1276505 C-52.8178355 312.98440615 -68.81846208 291.96143706 -77.17847896 267.1276505 C-84.21808538 242.46174272 -78.92422267 221.21234123 -72.11597896 197.1276505 C-71.87073482 196.25568028 -71.62549067 195.38371007 -71.37281489 194.48531651 C-70.23809995 190.5263462 -69.03675252 186.64186066 -67.56129146 182.79561925 C-66.49093327 179.95644881 -65.67962537 177.40066223 -65.11597896 174.4401505 C-64.4356518 171.1397204 -63.43093204 168.25878322 -62.17847896 165.1276505 C-61.86875205 163.76285613 -61.5779536 162.39371319 -61.29957271 161.02218175 C-60.27753087 156.31852018 -58.82904157 151.85346511 -57.24097896 147.3151505 C-55.1888552 141.31568824 -53.40194815 135.36045972 -51.95582271 129.182338 C-50.68215098 124.17725613 -49.0556089 119.28805032 -47.45972896 114.3776505 C-46.10833372 110.06465341 -45.05984803 105.68681031 -43.98170161 101.29903722 C-42.65451185 96.05885638 -41.13755841 90.87660948 -39.61597896 85.6901505 C-39.31240474 84.64149816 -39.00883052 83.59284581 -38.69605708 82.51241612 C-38.40021724 81.49985753 -38.10437739 80.48729894 -37.79957271 79.44405675 C-37.53587886 78.54114903 -37.27218501 77.63824132 -37.00050044 76.70797276 C-36.17705991 74.12319613 -35.19466437 71.64167992 -34.17847896 69.1276505 C-33.81061162 67.63574409 -33.47574477 66.13521282 -33.17847896 64.6276505 C-32.69645511 62.18310098 -32.13975673 60.03115722 -31.20972896 57.713588 C-30.0962749 54.92151761 -29.37684264 52.1751507 -28.67847896 49.2526505 C-27.6187432 44.84092446 -26.4472276 40.48414225 -25.17847896 36.1276505 C-24.95627681 35.36339757 -24.73407466 34.59914464 -24.50513911 33.81173253 C-23.75667038 31.24849033 -22.99951 28.68793161 -22.24097896 26.1276505 C-21.98896724 25.26397862 -21.73695552 24.40030675 -21.47730708 23.510463 C-18.85168793 14.67334073 -16.60283201 7.65978737 -8.49097896 2.3776505 C-5.31893505 0.66303217 -3.59303899 0.00242148 0 0 Z M6.82152104 28.1276505 C3.56809028 36.03385998 3.56809028 36.03385998 1.29417729 43.97530675 C-0.18723875 50.23451491 -1.93051823 56.39401018 -3.74097896 62.5651505 C-4.19634028 64.13812901 -4.19634028 64.13812901 -4.66090083 65.74288487 C-4.95674067 66.75544347 -5.25258052 67.76800206 -5.55738521 68.81124425 C-5.82107905 69.71415196 -6.0847729 70.61705968 -6.35645747 71.54732823 C-7.17847896 74.1276505 -7.17847896 74.1276505 -8.22901607 76.72555089 C-9.32824841 79.50656067 -9.87152245 82.31489835 -10.49097896 85.23311925 C-13.07515283 96.11307858 -16.66384759 106.79683373 -20.06519771 117.44405675 C-20.85577773 120.05990572 -21.5607769 122.62868178 -22.19801021 125.27999425 C-22.99505643 128.40784498 -23.95972499 131.15787042 -25.17847896 134.1276505 C-25.64561777 135.89089701 -26.08118513 137.66270121 -26.49097896 139.4401505 C-27.86927114 145.13615392 -29.55302133 150.69016964 -31.37696528 156.25582433 C-32.47587355 159.66109399 -33.40773554 163.03636387 -34.15113521 166.53780675 C-35.16082615 171.2545707 -36.56242911 175.79366689 -38.05347896 180.3776505 C-38.58759294 182.04683822 -39.12144623 183.71610937 -39.65504146 185.385463 C-40.0441772 186.59637609 -40.0441772 186.59637609 -40.44117427 187.83175206 C-42.7515192 195.02595199 -45.03156219 202.13636666 -46.54566646 209.541713 C-47.6083228 213.88417288 -49.02190594 218.12248604 -50.41456294 222.36910558 C-55.23695315 237.29049299 -53.91632017 253.43008392 -48.04566646 267.9245255 C-46.87642039 270.10815061 -45.60000065 272.10029922 -44.17847896 274.1276505 C-43.66414302 274.9320255 -43.14980708 275.7364005 -42.61988521 276.5651505 C-34.19276495 289.332335 -24.12499018 297.28301429 -10.17847896 303.1276505 C-9.08793208 303.59558019 -9.08793208 303.59558019 -7.97535396 304.072963 C6.52502809 309.95303918 26.59711814 308.50837932 40.88402104 302.9401505 C57.64927974 295.43299158 71.8562673 282.43146474 78.82152104 265.1276505 C79.18116948 264.28975987 79.54081792 263.45186925 79.91136479 262.588588 C83.08784278 254.02001038 83.32761177 245.78218633 83.31834722 236.7057755 C83.3896894 230.4802842 83.90175059 225.19465118 87.82152104 220.1276505 C92.1962597 217.53521278 95.76609411 216.57814757 100.82152104 217.1276505 C104.64768961 218.25810939 105.54981384 218.72008969 107.82152104 222.1276505 C108.48152104 222.1276505 109.14152104 222.1276505 109.82152104 222.1276505 C109.82562993 222.79071202 109.82973882 223.45377355 109.83397222 224.13692784 C110.0953836 248.34989637 113.78492339 271.34939634 130.88402104 289.8151505 C142.08684277 300.46261867 154.27660429 304.51730154 169.51854253 304.42672276 C180.47066742 304.14521751 187.9223516 300.41771321 196.82152104 294.1276505 C197.87339604 293.3851505 198.92527104 292.6426505 200.00902104 291.8776505 C215.34454005 276.8829208 219.73141415 259.56628482 220.33909917 238.90499425 C220.85633288 225.49595418 220.85633288 225.49595418 225.25902104 220.1901505 C229.36790021 216.88300386 232.66337705 216.77794582 237.82152104 217.1276505 C241.50326158 218.40209915 243.29697435 219.33833262 245.46214604 222.5964005 C247.27226585 227.29855079 247.26008506 231.50786168 247.32152104 236.5026505 C247.96843333 256.55858576 252.04851892 275.48584733 266.82152104 290.1276505 C278.10444325 299.60993065 290.35304797 305.8189268 305.44652104 305.0651505 C319.98953523 303.40458999 331.44978238 296.41826244 341.04417729 285.557338 C342.81130033 283.14162255 343.85309241 280.9476344 344.82152104 278.1276505 C345.48152104 278.1276505 346.14152104 278.1276505 346.82152104 278.1276505 C348.06036864 275.41981367 349.29399502 272.70995405 350.51683354 269.994838 C351.48030518 267.87750812 352.4839122 265.77833518 353.50902104 263.6901505 C357.04640902 254.08866885 357.14496331 243.99409028 357.3044312 233.86959386 C357.44870241 228.59811006 357.75573745 224.62604325 360.82152104 220.1276505 C365.20569892 217.64604038 368.80159025 216.48680827 373.82152104 217.1276505 C377.78113546 218.52516147 379.413013 219.46558574 381.63402104 223.0651505 C383.65933571 228.28833044 384.03055118 233.05552438 384.25902104 238.6276505 C385.0013274 253.23121285 387.95996471 265.12680692 394.82152104 278.1276505 C395.48152104 278.1276505 396.14152104 278.1276505 396.82152104 278.1276505 C397.02777104 278.8082755 397.23402104 279.4889005 397.44652104 280.1901505 C399.25047131 284.04404425 401.72255554 287.20552814 404.82152104 290.1276505 C405.48152104 290.1276505 406.14152104 290.1276505 406.82152104 290.1276505 C406.82152104 290.7876505 406.82152104 291.4476505 406.82152104 292.1276505 C410.45475793 295.09000745 410.45475793 295.09000745 414.82152104 296.1276505 C414.82152104 296.7876505 414.82152104 297.4476505 414.82152104 298.1276505 C427.1980208 304.42285778 441.41996645 306.35005811 454.82152104 302.1276505 C471.38526475 295.11717074 481.41968108 281.96254652 488.82152104 266.1276505 C489.16441167 265.48956456 489.50730229 264.85147862 489.86058354 264.19405675 C495.9426697 251.11509911 495.61668781 236.22582757 495.82152104 222.1276505 C496.48152104 222.1276505 497.14152104 222.1276505 497.82152104 222.1276505 C498.48152104 221.1376505 499.14152104 220.1476505 499.82152104 219.1276505 C503.83795679 216.94729967 507.30398822 216.73137569 511.82152104 217.1276505 C516.4425672 218.66799922 518.6681451 220.64513109 521.00291753 224.92232823 C522.63938792 229.33098825 522.28088997 233.98232558 522.25902104 238.6276505 C522.5098275 252.19689667 525.18039491 263.6659613 532.82152104 275.1276505 C533.45831792 276.08284581 534.09511479 277.03804112 534.75120854 278.02218175 C539.89042353 285.29206772 545.42425829 291.12027263 552.82152104 296.1276505 C553.48152104 296.1276505 554.14152104 296.1276505 554.82152104 296.1276505 C554.82152104 296.7876505 554.82152104 297.4476505 554.82152104 298.1276505 C571.48880385 307.10234124 592.3398473 310.66582328 610.82152104 305.1276505 C611.69808354 304.87112706 612.57464604 304.61460362 613.47777104 304.35030675 C630.68006262 298.72090515 643.2784704 286.78991001 651.82152104 271.1276505 C652.58142339 269.75673253 652.58142339 269.75673253 653.35667729 268.35811925 C660.94042286 251.63343235 660.04043647 233.34698328 654.82152104 216.1276505 C653.89190361 213.75708201 652.86159556 211.45353142 651.82152104 209.1276505 C651.33297476 207.30374438 650.84903226 205.47799257 650.41917729 203.63936925 C649.60684788 200.22546196 648.71689455 196.83297213 647.82152104 193.4401505 C647.49152104 192.17815831 647.16152104 190.91616612 646.82152104 189.61593175 C645.92767395 186.26282659 645.92767395 186.26282659 644.82152104 183.67061925 C643.74747716 180.93935922 643.06021696 178.18624489 642.37523198 175.33614659 C641.37101455 171.33078907 640.14543887 167.39071423 638.94652104 163.4401505 C638.55061772 162.1256693 638.55061772 162.1256693 638.14671636 160.78463292 C636.98512814 156.93519183 635.81503843 153.08891088 634.61058354 149.2526505 C632.91649492 143.85194691 631.3980161 138.51820992 630.25120854 132.97530675 C629.69398046 130.57922597 628.75414792 128.40092851 627.82152104 126.1276505 C627.35675934 124.30180093 626.89481844 122.47513334 626.45433354 120.6432755 C625.63627391 117.39123595 624.73293893 114.16724495 623.82152104 110.9401505 C623.49152104 109.77097081 623.16152104 108.60179112 622.82152104 107.39718175 C621.89503455 104.20218214 621.89503455 104.20218214 620.75902104 101.48311925 C619.8462988 99.18990462 619.29810967 97.04463568 618.82152104 94.6276505 C618.11347526 91.26996465 617.12535799 88.30575307 615.82152104 85.1276505 C615.28913961 83.10210553 614.80711481 81.06721183 614.32152104 79.02999425 C613.83432786 77.00625952 613.83432786 77.00625952 612.82152104 74.6901505 C611.70690532 71.83394772 611.14645469 68.96850569 610.51683354 65.97530675 C609.45747319 61.63669047 608.07080505 57.40400703 606.71336675 53.15182042 C605.19687764 48.385152 603.82348173 43.60292385 602.59495854 38.7526505 C601.53272488 35.14749382 600.14117986 31.64674068 598.82152104 28.1276505 C403.46152104 28.1276505 208.10152104 28.1276505 6.82152104 28.1276505 Z M507.82152104 288.1276505 C506.64796514 289.94830137 506.64796514 289.94830137 505.44652104 292.3151505 C496.9498227 306.82521265 482.75310343 319.4789311 466.82152104 325.1276505 C466.00038823 325.49632237 465.17925542 325.86499425 464.33323979 326.244838 C449.03916131 332.2465738 429.15214626 331.19999136 413.93870854 325.49093175 C412.39570073 324.81610753 412.39570073 324.81610753 410.82152104 324.1276505 C409.99909917 323.77058019 409.17667729 323.41350987 408.32933354 323.04561925 C406.45158936 322.15634795 404.6314908 321.14781527 402.82152104 320.1276505 C402.16409917 319.77573644 401.50667729 319.42382237 400.82933354 319.06124425 C395.9647107 316.41402981 395.9647107 316.41402981 394.82152104 314.1276505 C394.09448979 313.70612706 393.36745854 313.28460362 392.61839604 312.85030675 C389.32106355 310.81940782 386.75571109 308.31807318 384.07152104 305.5651505 C383.57781011 305.07079503 383.08409917 304.57643956 382.57542729 304.06710362 C378.96252529 300.40965899 378.96252529 300.40965899 377.82152104 298.1276505 C377.16152104 298.1276505 376.50152104 298.1276505 375.82152104 298.1276505 C375.41933354 296.982963 375.41933354 296.982963 375.00902104 295.8151505 C373.86027264 293.21535148 372.85293344 292.02549058 370.82152104 290.1276505 C370.48120854 290.66132237 370.14089604 291.19499425 369.79027104 291.744838 C364.09989234 300.49228185 358.14251225 308.72688804 349.82152104 315.1276505 C349.18343511 315.64069737 348.54534917 316.15374425 347.88792729 316.682338 C334.25021102 327.36920338 316.09067369 332.56674655 298.82152104 331.1276505 C276.09549491 327.97636955 255.24995723 318.54770989 240.82152104 300.1276505 C239.10009355 297.825132 237.45079035 295.49749676 235.82152104 293.1276505 C232.0445164 294.60381607 230.60250244 296.56447071 228.44652104 299.9401505 C225.56853891 304.22022649 222.90202518 307.02291909 218.82152104 310.1276505 C217.67683354 311.334213 217.67683354 311.334213 216.50902104 312.5651505 C203.59956677 324.87416504 185.55294454 330.76311989 168.00902104 331.4401505 C147.09014794 330.89680315 127.20543146 322.15700277 111.82152104 308.1276505 C111.32652104 307.1376505 111.32652104 307.1376505 110.82152104 306.1276505 C110.16152104 306.1276505 109.50152104 306.1276505 108.82152104 306.1276505 C108.56370854 305.560463 108.30589604 304.9932755 108.04027104 304.4089005 C106.69704137 301.89465009 105.1123697 299.84344629 103.32152104 297.6276505 C101.10824435 294.8891895 99.28084296 292.33815872 97.82152104 289.1276505 C94.91822075 291.86016842 92.44737661 294.56590749 90.13402104 297.8151505 C82.88508198 307.60305807 73.95909291 314.62304246 63.82152104 321.1276505 C63.16281011 321.55948644 62.50409917 321.99132237 61.82542729 322.43624425 C56.8363337 325.51105733 51.37276763 327.35481096 45.82152104 329.1276505 C44.70390386 329.49245519 43.58628667 329.85725987 42.43480229 330.23311925 C29.37894616 334.01208701 19.3433788 333.54677619 4.82152104 334.1276505 C4.82152104 452.2676505 4.82152104 570.4076505 4.82152104 692.1276505 C63.89152104 692.1276505 122.96152104 692.1276505 183.82152104 692.1276505 C183.82409917 671.27448644 183.82667729 650.42132237 183.82933354 628.93624425 C183.84427486 615.75198517 183.86068773 602.56775281 183.88402104 589.38350987 C183.89619767 582.45927557 183.9080002 575.53504079 183.91917729 568.6108048 C183.92130196 567.30903744 183.92130196 567.30903744 183.92346954 565.98097175 C183.94579406 551.96867814 183.946998 537.95645819 183.94040968 523.94415175 C183.93411846 509.56464294 183.95050369 495.18528904 183.98795712 480.80582696 C184.01035446 471.93223357 184.01504583 463.05899298 183.99711768 454.18538792 C183.98651916 448.10111562 183.99793937 442.01713333 184.02668257 435.93292069 C184.04261828 432.42203499 184.04883743 428.91183915 184.02891278 425.4009583 C184.01236682 421.59294858 184.03256382 417.78684473 184.06203008 413.9789536 C184.04844398 412.87096848 184.03485788 411.76298337 184.02086008 410.62142295 C184.11173346 404.5898397 184.72151826 400.65511601 189.14777189 396.33550709 C191.73136202 394.4710662 193.65015251 394.19816633 196.82152104 394.1276505 C197.4528315 394.10545752 198.08414195 394.08326455 198.73458302 394.06039906 C200.99325807 393.99741045 203.24679416 393.99435644 205.50632024 394.00066686 C206.79904594 393.99832687 206.79904594 393.99832687 208.11788732 393.99593961 C210.9988524 393.99195855 213.87976457 393.99510806 216.76073003 393.99825597 C218.82904903 393.99690064 220.89736778 393.99511996 222.96568608 393.99294591 C228.57926414 393.98838702 234.19282382 393.99015489 239.80640221 393.993325 C245.68213426 393.99585689 251.55786474 393.99350871 257.43359685 393.99193883 C267.30192146 393.99011942 277.17023859 393.99251732 287.03856206 393.99727941 C298.44474169 394.00272008 309.85090344 394.00095986 321.25708264 393.995453 C331.05171333 393.99091358 340.84633865 393.99027544 350.64097005 393.99289167 C356.49013718 393.99445006 362.33929591 393.9946602 368.1884625 393.99135518 C373.68859116 393.9884645 379.1886968 393.99047422 384.68882298 393.99624944 C386.7064217 393.99757067 388.72402236 393.99719372 390.7416203 393.99498677 C393.49768568 393.99225023 396.2536775 393.99568708 399.00973821 394.00066686 C399.80624569 393.99843614 400.60275317 393.99620541 401.42339724 393.99390709 C407.05172584 394.01360194 412.43863343 394.33335463 417.82152104 396.1276505 C418.94652104 398.0651505 418.94652104 398.0651505 419.82152104 400.1276505 C420.15152104 400.7876505 420.48152104 401.4476505 420.82152104 402.1276505 C420.92000065 403.71698441 420.95537752 405.31040887 420.96018624 406.90278363 C420.96566069 407.91695045 420.97113513 408.93111726 420.97677547 409.9760164 C420.97824263 411.65984039 420.97824263 411.65984039 420.97973943 413.37768102 C420.9846774 414.56362005 420.98961538 415.74955909 420.99470299 416.97143567 C421.00744628 420.27338258 421.01571201 423.57528702 421.02212965 426.87724876 C421.03011906 430.43417808 421.04382184 433.99108581 421.05684209 437.54799962 C421.0786256 443.71396897 421.09676321 449.87994048 421.11244702 456.04592824 C421.13512861 464.96098701 421.16327379 473.8760219 421.1927663 482.79106043 C421.24046323 497.25399528 421.28372171 511.71693989 421.32420659 526.17989659 C421.36355084 540.23198766 421.40498587 554.28407 421.44920659 568.33614659 C421.4519561 569.21068648 421.4547056 570.08522636 421.45753843 570.98626745 C421.4790567 577.8254171 421.50069652 584.66456637 421.52237475 591.50371552 C421.62866032 625.04500962 421.72434177 658.58632639 421.82152104 692.1276505 C481.22152104 692.1276505 540.62152104 692.1276505 601.82152104 692.1276505 C601.82152104 573.9876505 601.82152104 455.8476505 601.82152104 334.1276505 C594.23152104 333.7976505 586.64152104 333.4676505 578.82152104 333.1276505 C553.97592167 328.63941319 531.66482122 317.40846145 515.82152104 297.1276505 C514.16939985 294.71018141 512.57642341 292.27742112 511.04808354 289.77999425 C510.64331792 289.23472081 510.23855229 288.68944737 509.82152104 288.1276505 C509.16152104 288.1276505 508.50152104 288.1276505 507.82152104 288.1276505 Z M210.82152104 421.1276505 C210.82152104 510.5576505 210.82152104 599.9876505 210.82152104 692.1276505 C271.54152104 692.1276505 332.26152104 692.1276505 394.82152104 692.1276505 C394.82152104 602.6976505 394.82152104 513.2676505 394.82152104 421.1276505 C334.10152104 421.1276505 273.38152104 421.1276505 210.82152104 421.1276505 Z " fill="#000000" transform="translate(209.17847895622253,137.87234950065613)"/>
</svg>
