<?xml version="1.0" encoding="iso-8859-1"?>
<!-- Uploaded to: SVG Repo, www.svgrepo.com, Generator: SVG Repo Mixer Tools -->
<svg fill="#000000" height="800px" width="800px" version="1.1" id="Layer_1" xmlns="http://www.w3.org/2000/svg" xmlns:xlink="http://www.w3.org/1999/xlink" 
	 viewBox="0 0 512 512" xml:space="preserve">
<g transform="translate(1 1)">
	<g>
		<g>
			<path d="M475.16,408.6c-5.12-0.853-9.387,2.56-10.24,6.827c-9.387,46.933-46.933,78.507-92.16,78.507
				c-43.31,0-80.786-28.35-93.694-68.267H319V408.6h-49.569c-1.112-0.211-2.252-0.217-3.338,0h-15.36v68.267H267.8v-31.674
				C286.244,484.707,326.728,511,371.907,511c54.613,0,98.133-36.693,110.08-92.16C482.84,413.72,479.427,409.453,475.16,408.6z"/>
			<path d="M472.6,306.2v37.554c-19.062-38.461-57.337-63.154-100.693-63.154c-52.053,0-98.133,34.133-112.64,83.627
				c-0.853,4.267,1.707,9.387,5.973,10.24s8.533-1.707,10.24-5.973c11.947-40.96,52.907-70.827,96.427-70.827
				c38.848,0,73.443,23.35,88.343,59.733H421.4v17.067h68.267V306.2H472.6z"/>
			<path d="M71.533,50.2c-9.387,0-17.067,7.68-17.067,17.067V459.8c0,9.387,7.68,17.067,17.067,17.067h153.6
				c5.12,0,8.533-3.413,8.533-8.533s-3.413-8.533-8.533-8.533h-153.6V67.267h85.333c0,9.387,7.68,17.067,17.067,17.067H293.4
				c9.387,0,17.067-7.68,17.067-17.067H395.8V255c0,5.12,3.413,8.533,8.533,8.533c5.12,0,8.533-3.413,8.533-8.533V67.267
				c0-9.387-7.68-17.067-17.067-17.067h-85.333V33.133H421.4c5.12,0,8.533,3.413,8.533,8.533V255c0,5.12,3.413,8.533,8.533,8.533
				S447,260.12,447,255V41.667c0-14.507-11.093-25.6-25.6-25.6H310.467C310.467,6.68,302.787-1,293.4-1H173.933
				c-9.387,0-17.067,7.68-17.067,17.067H45.933c-14.507,0-25.6,11.093-25.6,25.6V485.4c0,14.507,11.093,25.6,25.6,25.6h179.2
				c5.12,0,8.533-3.413,8.533-8.533s-3.413-8.533-8.533-8.533h-179.2c-5.12,0-8.533-3.413-8.533-8.533V41.667
				c0-5.12,3.413-8.533,8.533-8.533h110.933V50.2H71.533z M173.933,16.067H293.4V24.6v34.133v8.533H173.933v-8.533V24.6V16.067z"/>
			<path d="M330.691,177.347l-33.024-46.08c-5.12-7.68-13.653-11.947-23.04-11.947h-36.925c-1.169-0.55-2.525-0.853-4.035-0.853
				s-2.865,0.304-4.035,0.853h-36.925c-9.387,0-17.92,4.267-23.04,11.947l-33.024,46.08H119.32c-12.8,0-22.187,10.24-22.187,22.187
				v33.28c0,12.8,9.387,22.187,22.187,22.187h13.034c3.814,14.679,17.216,25.6,33.046,25.6c15.829,0,29.232-10.921,33.046-25.6
				h70.442c3.814,14.679,17.216,25.6,33.046,25.6c15.829,0,29.232-10.921,33.046-25.6h13.034c12.8,0,22.187-9.387,23.04-22.187
				v-33.28c0-12.8-10.24-22.187-22.187-22.187H330.691z M283.16,139.8l26.7,37.547H242.2v-41.813h31.573
				C278.04,135.533,281.453,137.24,283.16,139.8z M182.467,139.8c2.56-2.56,5.973-4.267,9.387-4.267h33.28v41.813h-68.532
				L182.467,139.8z M165.4,263.533c-9.387,0-17.067-7.68-17.067-17.067s7.68-17.067,17.067-17.067
				c9.387,0,17.067,7.68,17.067,17.067S174.787,263.533,165.4,263.533z M301.933,263.533c-9.387,0-17.067-7.68-17.067-17.067
				s7.68-17.067,17.067-17.067S319,237.08,319,246.467S311.32,263.533,301.933,263.533z M353.987,199.533v33.28
				c0,2.56-2.56,5.12-5.12,5.12h-13.653c-4.267-14.507-15.36-25.6-31.573-25.6c-0.311,0-0.62,0.012-0.929,0.02
				c-0.259-0.006-0.517-0.02-0.778-0.02c-15.83,0-29.232,10.921-33.046,25.6h-69.354c-4.267-14.507-17.067-25.6-33.28-25.6
				c-0.156,0-0.309,0.008-0.464,0.01c-0.13-0.001-0.258-0.01-0.389-0.01c-15.83,0-29.232,10.921-33.046,25.6H119.32
				c-2.56,0-5.12-2.56-5.12-5.12v-33.28c0-2.56,2.56-5.12,5.12-5.12h16.642c1.132,0.538,2.405,0.853,3.838,0.853h187.733
				c1.433,0,2.706-0.315,3.838-0.853h17.495C351.427,194.413,353.987,196.973,353.987,199.533z"/>
			<path d="M233.667,323.267h-128c-5.12,0-8.533,3.413-8.533,8.533c0,5.12,3.413,8.533,8.533,8.533h128
				c5.12,0,8.533-3.413,8.533-8.533C242.2,326.68,238.787,323.267,233.667,323.267z"/>
			<path d="M233.667,365.933h-128c-5.12,0-8.533,3.413-8.533,8.533s3.413,8.533,8.533,8.533h128c5.12,0,8.533-3.413,8.533-8.533
				S238.787,365.933,233.667,365.933z"/>
			<path d="M233.667,408.6h-128c-5.12,0-8.533,3.413-8.533,8.533s3.413,8.533,8.533,8.533h128c5.12,0,8.533-3.413,8.533-8.533
				S238.787,408.6,233.667,408.6z"/>
		</g>
	</g>
</g>
</svg>