<?xml version="1.0" encoding="UTF-8"?>
<svg version="1.1" xmlns="http://www.w3.org/2000/svg" width="1024" height="1024">
<path d="M0 0 C0.7321875 0.55042969 1.464375 1.10085937 2.21875 1.66796875 C3.07855469 2.30476562 3.93835938 2.9415625 4.82421875 3.59765625 C6.8995894 5.21650137 8.96405225 6.84461114 11.01953125 8.48828125 C12.18975921 9.42360884 13.36033902 10.35849636 14.53125 11.29296875 C15.12107666 11.76395996 15.71090332 12.23495117 16.31860352 12.72021484 C22.1456579 17.30940577 28.29984297 21.13410518 34.71875 24.85546875 C35.34910156 25.22929687 35.97945312 25.603125 36.62890625 25.98828125 C38.31122305 26.9720439 40.01185904 27.91493699 41.71875 28.85546875 C42.65976562 29.38914063 43.60078125 29.9228125 44.5703125 30.47265625 C51.03821325 34.06936478 57.46033232 37.06309508 64.40625 39.609375 C67.87812387 40.91542189 71.25948659 42.36559373 74.65625 43.85546875 C83.74350829 47.78181198 92.97069616 51.63552241 102.75390625 53.3984375 C104.71875 53.85546875 104.71875 53.85546875 106.98828125 54.77734375 C110.37237196 56.11355124 113.82126281 57.03452076 117.34375 57.91796875 C118.04798096 58.09569824 118.75221191 58.27342773 119.4777832 58.45654297 C124.44272956 59.66116032 129.27074707 60.37255839 134.38671875 60.58203125 C136.71875 60.85546875 136.71875 60.85546875 138.97387695 61.8215332 C142.03336899 62.97397906 144.71716214 63.34657174 147.96875 63.671875 C149.20157715 63.79594727 150.4344043 63.92001953 151.70458984 64.04785156 C153.04253376 64.17240552 154.38059118 64.29574524 155.71875 64.41796875 C156.40447083 64.48205933 157.09019165 64.5461499 157.79669189 64.61218262 C185.61293893 67.1861682 214.88552541 68.77272983 242.67895508 64.91796875 C246.22783899 64.80922976 248.63446568 66.18481474 251.71875 67.85546875 C252.37875 68.18546875 253.03875 68.51546875 253.71875 68.85546875 C253.71875 69.51546875 253.71875 70.17546875 253.71875 70.85546875 C254.70875 71.18546875 255.69875 71.51546875 256.71875 71.85546875 C257.72222858 74.37640275 258.50637078 76.75043199 259.21875 79.35546875 C259.5434729 80.50897827 259.5434729 80.50897827 259.87475586 81.68579102 C262.05015163 89.66061448 263.47229631 97.69173106 264.71875 105.85546875 C264.88262207 106.92265137 265.04649414 107.98983398 265.21533203 109.08935547 C265.48192627 110.82789795 265.48192627 110.82789795 265.75390625 112.6015625 C266.02448853 114.36608765 266.02448853 114.36608765 266.30053711 116.16625977 C266.65831769 118.51378276 267.01209843 120.86191939 267.36157227 123.21069336 C267.52326904 124.28714111 267.68496582 125.36358887 267.8515625 126.47265625 C267.99480957 127.43800293 268.13805664 128.40334961 268.28564453 129.39794922 C268.67870653 131.97995985 268.67870653 131.97995985 269.71875 134.85546875 C269.90706646 136.21976692 270.05826867 137.58941782 270.18359375 138.9609375 C270.26029297 139.77030762 270.33699219 140.57967773 270.41601562 141.41357422 C270.49529297 142.28127441 270.57457031 143.14897461 270.65625 144.04296875 C271.23161422 150.12647205 271.87304421 156.17734618 272.71875 162.23046875 C275.63540695 185.42913294 276.04981176 208.73412635 275.97949219 232.07983398 C275.96804762 235.9158065 275.97491896 239.75150289 275.9863739 243.58746624 C276.04415184 266.41897454 275.32394027 288.96206682 271.43359375 311.515625 C270.73438553 315.61904071 270.24453734 319.71868182 269.78125 323.85546875 C269.04631866 329.96960345 267.98372719 335.95400846 266.71875 341.98046875 C266.46943726 343.1715625 266.46943726 343.1715625 266.21508789 344.38671875 C265.51959092 347.59428371 264.78009295 350.67575306 263.71875 353.78515625 C262.85996195 356.42190394 262.29043268 358.88923985 261.77734375 361.60546875 C260.7798224 366.80620445 259.34880859 371.80137556 257.78125 376.85546875 C257.52923828 377.68046875 257.27722656 378.50546875 257.01757812 379.35546875 C256.5097982 381.0177662 255.99955619 382.67931362 255.48681641 384.34008789 C254.96319579 386.05492045 254.45027701 387.77304863 253.94677734 389.49389648 C252.59973942 394.09649152 251.14932833 398.51847776 249.21875 402.91796875 C247.76938574 406.30698667 246.39717118 409.6551281 245.28125 413.16796875 C243.33629851 419.23358016 240.88019567 425.10589693 238.47412109 430.99951172 C237.77361107 432.72067435 237.08361865 434.44610745 236.39453125 436.171875 C233.89403848 442.34817103 231.05103018 448.09340094 227.71875 453.85546875 C226.73467868 455.64444623 225.75575527 457.43626244 224.78125 459.23046875 C224.27464844 460.15859375 223.76804687 461.08671875 223.24609375 462.04296875 C222.25244909 463.87269804 221.26511774 465.70587472 220.28515625 467.54296875 C212.44119085 482.16803161 203.37944984 496.07038965 193.48046875 509.3828125 C191.65581902 511.85591028 191.65581902 511.85591028 190.11328125 514.671875 C189.65308594 515.39246094 189.19289063 516.11304688 188.71875 516.85546875 C188.05875 516.85546875 187.39875 516.85546875 186.71875 516.85546875 C186.491875 517.53609375 186.265 518.21671875 186.03125 518.91796875 C184.40648854 522.55433965 182.39071743 525.88376138 179.71875 528.85546875 C179.05875 528.85546875 178.39875 528.85546875 177.71875 528.85546875 C177.31015747 529.73380371 177.31015747 529.73380371 176.89331055 530.62988281 C175.74050142 532.81425363 174.4868682 534.55670588 172.92578125 536.46484375 C172.38091064 537.13386719 171.83604004 537.80289063 171.2746582 538.4921875 C170.41167114 539.53826172 170.41167114 539.53826172 169.53125 540.60546875 C168.94625732 541.31832031 168.36126465 542.03117188 167.75854492 542.765625 C166.08408412 544.8001774 164.40294663 546.82897281 162.71875 548.85546875 C161.9453125 549.78875 161.171875 550.72203125 160.375 551.68359375 C157.00916035 555.64843876 157.00916035 555.64843876 155.71875 556.85546875 C155.05875 556.85546875 154.39875 556.85546875 153.71875 556.85546875 C153.05875 558.17546875 152.39875 559.49546875 151.71875 560.85546875 C151.05875 560.85546875 150.39875 560.85546875 149.71875 560.85546875 C149.05875 562.17546875 148.39875 563.49546875 147.71875 564.85546875 C147.05875 564.85546875 146.39875 564.85546875 145.71875 564.85546875 C145.3475 565.72171875 145.3475 565.72171875 144.96875 566.60546875 C143.53575012 569.18486854 141.93450324 570.91668467 139.71875 572.85546875 C139.05875 572.85546875 138.39875 572.85546875 137.71875 572.85546875 C137.05875 574.17546875 136.39875 575.49546875 135.71875 576.85546875 C135.05875 576.85546875 134.39875 576.85546875 133.71875 576.85546875 C133.05875 578.17546875 132.39875 579.49546875 131.71875 580.85546875 C131.05875 580.85546875 130.39875 580.85546875 129.71875 580.85546875 C129.05875 582.17546875 128.39875 583.49546875 127.71875 584.85546875 C127.05875 584.85546875 126.39875 584.85546875 125.71875 584.85546875 C125.491875 585.4278125 125.265 586.00015625 125.03125 586.58984375 C123.35439638 589.4844125 121.3419023 591.0337746 118.71875 593.10546875 C117.7390625 593.88664063 116.759375 594.6678125 115.75 595.47265625 C114.7496875 596.25898437 113.749375 597.0453125 112.71875 597.85546875 C110.88407804 599.31211765 109.05065066 600.77033616 107.21875 602.23046875 C106.4246875 602.85695313 105.630625 603.4834375 104.8125 604.12890625 C102.72421638 605.78275727 102.72421638 605.78275727 101.0625 607.58203125 C99.71875 608.85546875 99.71875 608.85546875 97.71875 608.85546875 C97.71875 609.51546875 97.71875 610.17546875 97.71875 610.85546875 C95.97707301 612.25347035 94.17404359 613.57567478 92.34375 614.85546875 C88.34663786 617.63611643 88.34663786 617.63611643 84.71875 620.85546875 C83.72875 620.85546875 82.73875 620.85546875 81.71875 620.85546875 C81.71875 621.51546875 81.71875 622.17546875 81.71875 622.85546875 C76.30698529 626.85546875 76.30698529 626.85546875 73.71875 626.85546875 C73.71875 627.51546875 73.71875 628.17546875 73.71875 628.85546875 C72.39875 629.18546875 71.07875 629.51546875 69.71875 629.85546875 C69.71875 630.51546875 69.71875 631.17546875 69.71875 631.85546875 C67.97463699 633.09209737 66.17168515 634.2464901 64.34375 635.35546875 C60.28931853 637.79763382 60.28931853 637.79763382 56.71875 640.85546875 C55.72875 640.85546875 54.73875 640.85546875 53.71875 640.85546875 C53.71875 641.51546875 53.71875 642.17546875 53.71875 642.85546875 C51.08640834 644.61036319 48.43479606 646.2373116 45.71875 647.85546875 C43.67652334 649.12540197 41.63490183 650.39630867 39.59375 651.66796875 C33.88782095 655.17576596 28.1115601 658.54278504 22.27734375 661.83203125 C19.83304317 663.21197645 17.41309489 664.62606869 15.00390625 666.06640625 C6.13522322 671.33828035 -1.66572155 675.07364415 -12.28125 673.85546875 C-14.89517744 672.9841596 -16.89703767 672.14513251 -19.28125 670.85546875 C-20.18488281 670.37207031 -21.08851563 669.88867188 -22.01953125 669.390625 C-23.92865841 668.3564091 -25.8326995 667.31272525 -27.73046875 666.2578125 C-29.89209538 665.0694144 -32.06607807 663.93970981 -34.28125 662.85546875 C-34.28125 662.19546875 -34.28125 661.53546875 -34.28125 660.85546875 C-34.84070313 660.74976563 -35.40015625 660.6440625 -35.9765625 660.53515625 C-38.70266051 659.73118836 -40.74881135 658.48793034 -43.15625 656.98046875 C-46.79882573 654.73888369 -50.41784922 652.6855007 -54.28125 650.85546875 C-54.28125 650.19546875 -54.28125 649.53546875 -54.28125 648.85546875 C-55.13976562 648.68337891 -55.13976562 648.68337891 -56.015625 648.5078125 C-58.49596656 647.79364519 -60.34493697 646.78239003 -62.53125 645.41796875 C-63.23765625 644.98613281 -63.9440625 644.55429687 -64.671875 644.109375 C-65.20296875 643.69558594 -65.7340625 643.28179688 -66.28125 642.85546875 C-66.28125 642.19546875 -66.28125 641.53546875 -66.28125 640.85546875 C-67.13976562 640.68337891 -67.13976562 640.68337891 -68.015625 640.5078125 C-70.49596656 639.79364519 -72.34493697 638.78239003 -74.53125 637.41796875 C-75.23765625 636.98613281 -75.9440625 636.55429687 -76.671875 636.109375 C-77.20296875 635.69558594 -77.7340625 635.28179688 -78.28125 634.85546875 C-78.28125 634.19546875 -78.28125 633.53546875 -78.28125 632.85546875 C-78.87292969 632.73945312 -79.46460938 632.6234375 -80.07421875 632.50390625 C-82.43063137 631.81157971 -83.68229982 631.00084062 -85.59375 629.48046875 C-88.22506258 627.43281145 -90.86888999 625.41717131 -93.57421875 623.46875 C-101.82989837 617.51773003 -109.79143415 611.28768167 -117.6484375 604.8203125 C-121.30906962 601.81166504 -125.06047818 598.93607485 -128.875 596.125 C-129.3390625 595.70605469 -129.803125 595.28710938 -130.28125 594.85546875 C-130.28125 594.19546875 -130.28125 593.53546875 -130.28125 592.85546875 C-131.60125 592.19546875 -132.92125 591.53546875 -134.28125 590.85546875 C-134.28125 590.19546875 -134.28125 589.53546875 -134.28125 588.85546875 C-134.85875 588.58734375 -135.43625 588.31921875 -136.03125 588.04296875 C-138.33675043 586.82617686 -140.30181192 585.55212996 -142.28125 583.85546875 C-142.28125 583.19546875 -142.28125 582.53546875 -142.28125 581.85546875 C-142.84585938 581.61683105 -143.41046875 581.37819336 -143.9921875 581.13232422 C-146.77833991 579.57818843 -148.66501067 577.69667867 -150.90625 575.42578125 C-151.77765625 574.54792969 -152.6490625 573.67007813 -153.546875 572.765625 C-154.44921875 571.84652344 -155.3515625 570.92742188 -156.28125 569.98046875 C-157.18359375 569.06910156 -158.0859375 568.15773438 -159.015625 567.21875 C-160.69760363 565.51935444 -162.37751878 563.81791226 -164.0546875 562.11376953 C-165.52437119 560.6231364 -167.02978546 559.16680974 -168.5703125 557.74951172 C-170.28125 555.85546875 -170.28125 555.85546875 -170.28125 552.85546875 C-171.60125 552.19546875 -172.92125 551.53546875 -174.28125 550.85546875 C-174.28125 550.19546875 -174.28125 549.53546875 -174.28125 548.85546875 C-174.82910156 548.66597656 -175.37695312 548.47648438 -175.94140625 548.28125 C-179.36855247 546.19292217 -181.34160906 543.23101885 -183.71875 540.04296875 C-186.32748178 536.58033864 -188.85613534 533.2768379 -191.94140625 530.21875 C-194.28101552 527.85570558 -195.63531482 525.72965205 -197.28125 522.85546875 C-199.19552954 520.01196296 -201.17706273 517.21654928 -203.15625 514.41796875 C-203.67316406 513.67998047 -204.19007813 512.94199219 -204.72265625 512.18164062 C-207.08632147 508.83261875 -209.46156449 505.59216452 -212.1640625 502.5078125 C-214.28125 499.85546875 -214.28125 499.85546875 -214.28125 496.85546875 C-214.94125 496.85546875 -215.60125 496.85546875 -216.28125 496.85546875 C-220.57598263 491.61641238 -223.6824902 485.40944062 -226.85546875 479.45703125 C-228.04524646 477.28609439 -229.29617112 475.23310525 -230.65625 473.16796875 C-233.59831668 468.57454852 -235.92476939 463.67678906 -238.32836914 458.78833008 C-240.1543835 455.08117804 -242.03103017 451.43874337 -244.09375 447.85546875 C-245.91635427 444.64623199 -247.25993022 441.46579327 -248.48046875 437.98828125 C-249.39781959 435.5449956 -250.48335435 433.21726267 -251.59375 430.85546875 C-254.6177048 424.30508931 -257.08904979 417.56962508 -259.56518555 410.79858398 C-260.27892276 408.86178397 -261.0118543 406.93301306 -261.74609375 405.00390625 C-263.5253721 400.2658862 -265.12634377 395.47145755 -266.71875 390.66796875 C-267.02659424 389.73960205 -267.33443848 388.81123535 -267.65161133 387.85473633 C-272.78527007 372.31848584 -277.58570895 356.90267958 -279.8515625 340.6640625 C-280.2062483 338.34570716 -280.66106873 336.17447446 -281.28125 333.91796875 C-282.5884953 329.09750172 -283.11457978 324.16077737 -283.77734375 319.21875 C-284.16992927 316.5984699 -284.6643612 314.15695113 -285.34375 311.60546875 C-286.53370211 306.58737615 -286.65772942 301.49887216 -286.87680054 296.36724854 C-287.09427567 291.54517139 -287.47648424 286.77909677 -288.02082825 281.98376465 C-289.59367824 267.7867541 -289.63280068 253.62483354 -289.59375 239.35546875 C-289.59259186 238.04340454 -289.59143372 236.73134033 -289.59024048 235.3795166 C-289.56468996 216.09421219 -289.04879982 196.86402162 -287.96875 177.60546875 C-287.90998688 176.51661377 -287.85122375 175.42775879 -287.79067993 174.3059082 C-287.15758504 162.91041715 -286.20524822 151.77840341 -283.98193359 140.57543945 C-283.21286498 136.49240865 -282.68807831 132.41877781 -282.21875 128.29296875 C-281.31007746 120.48021313 -281.31007746 120.48021313 -280.28125 116.66796875 C-279.43471912 113.44056975 -278.88089944 110.39886971 -278.40625 107.10546875 C-277.52614474 101.22664066 -276.51419287 95.38250467 -275.40625 89.54296875 C-275.25687988 88.70733398 -275.10750977 87.87169922 -274.95361328 87.01074219 C-273.40596024 79.04278434 -270.76945182 72.07767997 -264.28125 66.85546875 C-259.8439859 65.50076472 -255.4705658 65.92504457 -250.90625 66.23046875 C-249.18101017 66.32848807 -247.4557488 66.42612871 -245.73046875 66.5234375 C-243.05049704 66.68238225 -240.37190831 66.84908725 -237.69384766 67.03759766 C-219.45025851 68.31827345 -201.47596481 67.27142779 -183.28125 65.85546875 C-182.57671692 65.80112671 -181.87218384 65.74678467 -181.14630127 65.6907959 C-164.9698912 64.43058802 -149.03184165 62.87432309 -133.28125 58.85546875 C-132.05196777 58.54923584 -132.05196777 58.54923584 -130.79785156 58.23681641 C-122.91905861 56.26637009 -115.12081476 54.19948766 -107.42871094 51.58520508 C-105.47274626 50.92054178 -103.50824322 50.28114053 -101.54296875 49.64453125 C-72.80798138 40.28603263 -43.97883975 25.61979881 -21.2277832 5.55151367 C-15.37843173 0.51143586 -7.68317199 -3.85474211 0 0 Z M-13.90625 48.23046875 C-15.064537 49.07239542 -16.22336772 49.91357471 -17.3828125 50.75390625 C-18.81753906 51.79417969 -18.81753906 51.79417969 -20.28125 52.85546875 C-20.94125 53.18546875 -21.60125 53.51546875 -22.28125 53.85546875 C-22.28125 54.51546875 -22.28125 55.17546875 -22.28125 55.85546875 C-22.96058594 56.108125 -23.63992188 56.36078125 -24.33984375 56.62109375 C-27.79653428 58.07171023 -31.05602684 59.81470171 -34.34375 61.60546875 C-40.06010418 64.68765849 -45.81332928 67.67026092 -51.63671875 70.546875 C-53.27029956 71.35522001 -54.89904349 72.17352997 -56.51953125 73.0078125 C-60.28671504 74.94626629 -64.04214604 76.57673562 -68.02734375 78.01171875 C-70.74977325 79.03086047 -73.41673603 80.15998735 -76.09375 81.29296875 C-88.78832475 86.60623688 -101.756885 90.84762713 -115.13671875 94.07421875 C-118.60091203 94.93488789 -122.03040965 95.89694515 -125.46875 96.85546875 C-131.67288273 98.52605742 -137.86858902 99.7783598 -144.20776367 100.81640625 C-147.67527383 101.38439329 -151.07106458 102.03778024 -154.484375 102.875 C-160.31457296 104.19896425 -166.20345906 104.52226299 -172.15625 104.91796875 C-174.38286404 105.07479081 -176.60942726 105.23233608 -178.8359375 105.390625 C-179.81030762 105.45644775 -180.78467773 105.52227051 -181.78857422 105.59008789 C-184.70350442 105.81157042 -187.60614006 106.08140471 -190.51538086 106.36474609 C-196.00608956 106.8688185 -201.46934979 107.07017756 -206.98046875 107.171875 C-208.42206108 107.20304665 -208.42206108 107.20304665 -209.89277649 107.23484802 C-212.91803886 107.29945528 -215.94337672 107.35880869 -218.96875 107.41796875 C-221.0384188 107.46123878 -223.10808038 107.50485554 -225.17773438 107.54882812 C-230.21216517 107.65504344 -235.24667073 107.75655194 -240.28125 107.85546875 C-241.6035459 111.62458156 -242.64585139 115.2626209 -243.31640625 119.19921875 C-243.48543457 120.19147461 -243.65446289 121.18373047 -243.82861328 122.20605469 C-243.9986084 123.24536133 -244.16860352 124.28466797 -244.34375 125.35546875 C-244.52147949 126.42829102 -244.69920898 127.50111328 -244.88232422 128.60644531 C-245.9687486 135.36165869 -246.72202437 141.9911374 -247.0703125 148.82421875 C-247.35103163 152.85825667 -248.02952295 156.77603528 -248.78125 160.74609375 C-250.09447673 168.91272249 -250.51954866 177.1459685 -250.8359375 185.40234375 C-250.89900589 187.02641144 -250.89900589 187.02641144 -250.96334839 188.68328857 C-251.3880333 200.49070134 -251.4370121 212.29170215 -251.40625 224.10546875 C-251.40436676 225.21077942 -251.40248352 226.31609009 -251.40054321 227.45489502 C-251.56362095 261.357375 -251.56362095 261.357375 -248 295.01171875 C-247.3929076 298.70353881 -247.09458401 302.35213052 -246.86328125 306.0859375 C-246.3644178 313.10792719 -245.01431343 319.80997592 -243.46875 326.66796875 C-243.19667725 327.90063477 -242.92460449 329.13330078 -242.64428711 330.40332031 C-241.86901389 333.89032697 -241.07938194 337.37363148 -240.28125 340.85546875 C-240.0965918 341.66483887 -239.91193359 342.47420898 -239.72167969 343.30810547 C-238.67181775 347.85073619 -237.51515776 352.35987467 -236.28125 356.85546875 C-236.03262207 357.76248535 -235.78399414 358.66950195 -235.52783203 359.60400391 C-232.44715436 370.73077141 -229.2542808 381.66134214 -224.76171875 392.30859375 C-222.78638209 397.04106258 -221.02963164 401.84644745 -219.28491211 406.66796875 C-218.17451041 409.68734083 -217.07711599 412.16166977 -215.28125 414.85546875 C-214.61458333 416.85546875 -213.94791667 418.85546875 -213.28125 420.85546875 C-208.72742383 432.19158921 -203.05982616 443.43832245 -196.5078125 453.7421875 C-195.17329487 456.04146787 -194.21315653 458.36893311 -193.28125 460.85546875 C-192.62125 460.85546875 -191.96125 460.85546875 -191.28125 460.85546875 C-191.05566406 461.68691406 -190.83007812 462.51835938 -190.59765625 463.375 C-189.00964334 467.57357418 -186.77823501 470.88294139 -184.21875 474.54296875 C-183.30809201 475.85722832 -182.40041125 477.17355713 -181.49609375 478.4921875 C-181.09511475 479.06670654 -180.69413574 479.64122559 -180.28100586 480.2331543 C-179.28125 481.85546875 -179.28125 481.85546875 -178.28125 484.85546875 C-177.29117131 485.86529259 -176.28967821 486.8639686 -175.28125 487.85546875 C-173.68792878 490.16639266 -172.18973887 492.5260893 -170.68359375 494.89453125 C-169.42384134 496.97891818 -169.42384134 496.97891818 -167.28125 497.85546875 C-166.78625 499.34046875 -166.78625 499.34046875 -166.28125 500.85546875 C-165.31139443 501.88473071 -164.30865486 502.8836461 -163.28125 503.85546875 C-161.49086938 506.09274186 -159.72227533 508.33978101 -157.96875 510.60546875 C-151.15771992 519.33904298 -151.15771992 519.33904298 -143.65625 527.48046875 C-141.32055944 529.81615931 -139.34270226 532.27865343 -137.28125 534.85546875 C-135.6358122 536.54309726 -133.96836423 538.20950365 -132.28125 539.85546875 C-131.394375 540.78359375 -130.5075 541.71171875 -129.59375 542.66796875 C-127.56962851 545.08453537 -127.56962851 545.08453537 -125.28125 544.85546875 C-124.88292969 545.74298828 -124.88292969 545.74298828 -124.4765625 546.6484375 C-120.4921323 554.00531025 -112.06906008 559.86045613 -105.59375 564.98046875 C-102.96403413 567.11267081 -100.67640217 569.46031658 -98.28125 571.85546875 C-92.83076911 577.02815712 -87.40194233 581.71247577 -80.99609375 585.6640625 C-79.28125 586.85546875 -79.28125 586.85546875 -78.28125 588.85546875 C-76.63078 589.88198058 -74.96099669 590.87759922 -73.28125 591.85546875 C-71.5591303 593.06524443 -69.85138007 594.29565663 -68.15625 595.54296875 C-67.19203125 596.24808594 -66.2278125 596.95320312 -65.234375 597.6796875 C-63.34450066 599.07209492 -61.45867392 600.47002342 -59.578125 601.875 C-53.66572025 606.25744036 -47.60103951 610.22717947 -41.30078125 614.03125 C-38.18365769 615.91442814 -35.11572043 617.86306297 -32.0625 619.84765625 C-30.22003168 620.94670315 -30.22003168 620.94670315 -27.84375 621.80078125 C-24.39724304 623.21931308 -21.59731563 625.28077464 -18.5625 627.41796875 C-16.29510434 628.94276455 -16.29510434 628.94276455 -13.625 629.91796875 C-11.28125 630.85546875 -11.28125 630.85546875 -9.28125 632.85546875 C-3.45443538 632.71335132 0.85276603 629.73562424 5.71875 626.85546875 C7.49416181 625.82950298 9.27284827 624.80944277 11.05273438 623.79125977 C12.25996132 623.10034814 13.46576884 622.40694851 14.66992188 621.71069336 C18.29306316 619.62553227 21.96306211 617.69056966 25.71875 615.85546875 C25.71875 615.19546875 25.71875 614.53546875 25.71875 613.85546875 C26.79382813 613.45908203 26.79382813 613.45908203 27.890625 613.0546875 C35.59692725 609.78695989 42.4061332 604.51618031 48.84375 599.23828125 C50.71875 597.85546875 50.71875 597.85546875 53.71875 596.85546875 C54.5540625 595.98921875 54.5540625 595.98921875 55.40625 595.10546875 C58.04837313 592.53475435 60.83996166 590.851646 64.01171875 589.00390625 C65.87461422 587.95413771 65.87461422 587.95413771 66.71875 585.85546875 C67.70875 585.52546875 68.69875 585.19546875 69.71875 584.85546875 C70.46125 584.11296875 71.20375 583.37046875 71.96875 582.60546875 C74.14160934 580.43260941 76.02839684 578.87193141 78.53125 577.16796875 C79.583125 576.40484375 80.635 575.64171875 81.71875 574.85546875 C81.71875 574.19546875 81.71875 573.53546875 81.71875 572.85546875 C82.585 572.73171875 82.585 572.73171875 83.46875 572.60546875 C86.3726836 571.63749088 87.75615604 570.16852591 89.71875 567.85546875 C89.71875 567.19546875 89.71875 566.53546875 89.71875 565.85546875 C90.5540625 565.76265625 90.5540625 565.76265625 91.40625 565.66796875 C94.64618251 564.52961408 96.43164424 562.30507939 98.71875 559.85546875 C100.04802451 558.51808891 101.38165198 557.18502674 102.71875 555.85546875 C103.358125 555.21609375 103.9975 554.57671875 104.65625 553.91796875 C105.336875 553.23734375 106.0175 552.55671875 106.71875 551.85546875 C107.8636792 550.7094519 107.8636792 550.7094519 109.03173828 549.5402832 C111.60717803 546.96694948 114.1894065 544.40064086 116.7734375 541.8359375 C118.21963274 540.39712417 119.66534145 538.95782394 121.11083984 537.51831055 C122.094962 536.53921108 123.07998062 535.5610118 124.06591797 534.58374023 C129.83984049 528.85901084 135.49651378 523.09404248 140.71875 516.85546875 C141.25467773 516.21552979 141.79060547 515.57559082 142.34277344 514.91625977 C154.78320575 500.95303343 154.78320575 500.95303343 163.71875 484.85546875 C164.37875 484.85546875 165.03875 484.85546875 165.71875 484.85546875 C167.23887037 482.60119603 167.23887037 482.60119603 168.71875 479.85546875 C169.275625 478.96859375 169.8325 478.08171875 170.40625 477.16796875 C171.88328517 475.0087411 171.88328517 475.0087411 171.71875 472.85546875 C172.37875 472.85546875 173.03875 472.85546875 173.71875 472.85546875 C174.08226562 472.16582031 174.44578125 471.47617187 174.8203125 470.765625 C177.23350349 466.25481416 179.64278656 461.85120264 182.59375 457.66796875 C185.75149173 453.05470544 188.16329047 448.16079756 190.61010742 443.1484375 C192.60799622 439.0585857 194.68426033 435.03443811 196.87597656 431.04516602 C200.26499138 424.87025252 203.0908989 418.73200298 205.5078125 412.09765625 C206.7967522 408.64662414 208.23873444 405.29120218 209.71875 401.91796875 C214.83109809 390.05889018 218.66266536 378.00900745 221.99023438 365.55761719 C222.80644662 362.53019189 223.64484754 359.50932173 224.484375 356.48828125 C227.74688161 344.68123719 230.8753433 332.97908307 232.71875 320.85546875 C232.8420166 320.05334961 232.9652832 319.25123047 233.09228516 318.42480469 C233.90590881 313.06552288 234.66234345 307.70025796 235.38232422 302.32763672 C235.67753767 300.15831057 235.99333319 297.99342514 236.31640625 295.828125 C237.95194551 283.89474598 238.17049837 271.92041504 238.47265625 259.89453125 C238.57681813 255.75909945 238.71818102 251.64269633 238.99462891 247.51538086 C239.79515233 235.42215778 239.62445433 223.48388821 239.10449219 211.37817383 C238.96965374 208.18934149 238.85504431 205.00022394 238.7421875 201.81054688 C238.21396943 188.19448435 236.86363097 174.82963761 235.03924561 161.33071899 C234.29886231 155.61259399 233.88307414 149.86744645 233.45898438 144.11914062 C233.05028009 139.10595135 232.15933006 134.69648778 230.71875 129.85546875 C230.26034017 127.15781266 229.95187695 124.45023666 229.65625 121.73046875 C229.16661531 117.40064129 228.65551095 113.11648757 227.71875 108.85546875 C223.51625259 107.6835459 219.4172953 107.68261156 215.08203125 107.64453125 C213.30573456 107.61890758 211.52944894 107.59250754 209.75317383 107.56542969 C208.8200235 107.55217651 207.88687317 107.53892334 206.92544556 107.52526855 C178.69673127 107.08831091 151.27241777 105.44780691 123.71875 98.85546875 C122.13338333 98.49616985 120.54746929 98.13927495 118.9609375 97.78515625 C110.84928747 95.95705342 102.82279866 93.87751699 94.85546875 91.49316406 C93.26032078 91.01709842 91.66372592 90.54587589 90.06640625 90.07714844 C67.84660109 83.55287679 67.84660109 83.55287679 57.71875 78.85546875 C56.77386719 78.43007812 55.82898438 78.0046875 54.85546875 77.56640625 C51.46345493 76.02340632 48.0894299 74.44430907 44.71875 72.85546875 C43.45973877 72.26378906 43.45973877 72.26378906 42.17529297 71.66015625 C39.35471545 70.33305938 36.53640911 69.00124974 33.71875 67.66796875 C32.8100415 67.2397583 31.90133301 66.81154785 30.96508789 66.37036133 C26.75457433 64.37000465 22.6632402 62.35137893 18.71875 59.85546875 C17.72359375 59.2625 16.7284375 58.66953125 15.703125 58.05859375 C9.70336114 54.43554794 3.99479084 50.73105787 -1.37890625 46.203125 C-6.60297998 42.50229248 -9.17033422 44.67853191 -13.90625 48.23046875 Z " fill="#08090A" transform="translate(518.28125,163.14453125)"/>
<path d="M0 0 C0.84175781 0.14824219 1.68351562 0.29648437 2.55078125 0.44921875 C22.70621582 4.76168654 40.06926494 19.69496102 55 33 C58.38546064 31.52507019 60.6511499 29.60434215 63.3125 27.0625 C75.39210843 16.03251881 88.44862315 7.34378587 104 2 C104.64710938 1.73316406 105.29421875 1.46632813 105.9609375 1.19140625 C118.799469 -3.79605301 134.42028004 -2.23249802 148 -2 C149.02996094 -1.99484375 150.05992187 -1.9896875 151.12109375 -1.984375 C159.86226256 -1.61184421 167.91677312 1.90127176 176 5 C176 5.66 176 6.32 176 7 C177.2065625 7.061875 177.2065625 7.061875 178.4375 7.125 C182.6605555 8.1622417 185.35660526 10.02354054 188.875 12.5078125 C191.10536081 14.12312382 191.10536081 14.12312382 194.0625 15.75 C194.701875 16.1625 195.34125 16.575 196 17 C196 17.66 196 18.32 196 19 C196.8353125 19.0928125 196.8353125 19.0928125 197.6875 19.1875 C201.00943148 20.35466511 202.59981091 22.43235585 205 25 C206.18510969 26.16909469 207.37272797 27.33565045 208.5625 28.5 C216 35.95373908 216 35.95373908 216 39 C216.99 39.33 217.98 39.66 219 40 C220.359375 42.046875 220.359375 42.046875 221.75 44.75 C222.5234375 46.23693359 222.5234375 46.23693359 223.3125 47.75390625 C224.1478125 49.36072266 224.1478125 49.36072266 225 51 C225.61875 52.10214844 226.2375 53.20429688 226.875 54.33984375 C230.17600346 60.23351034 232.69885083 65.37596788 234 72 C234.48339844 73.1446875 234.48339844 73.1446875 234.9765625 74.3125 C238.43212476 83.38664822 238.51423795 94.36571928 239 104 C239.05414062 105.06347656 239.10828125 106.12695312 239.1640625 107.22265625 C239.58786873 123.69330763 236.50080945 138.94094406 230 154 C229.6596875 154.82371094 229.319375 155.64742187 228.96875 156.49609375 C225.10626454 165.56960484 220.88218857 175.0566347 215 183 C214.34 183 213.68 183 213 183 C212.773125 183.680625 212.54625 184.36125 212.3125 185.0625 C210.68773854 188.6988709 208.67196743 192.02829263 206 195 C205.34 195 204.68 195 204 195 C203.74476563 195.56460938 203.48953125 196.12921875 203.2265625 196.7109375 C201.84762461 199.28436936 200.22297142 201.36473217 198.375 203.625 C196.14664623 206.3575798 193.92941218 209.09082629 191.765625 211.875 C191.05921875 212.7825 190.3528125 213.69 189.625 214.625 C188.65433594 215.88183594 188.65433594 215.88183594 187.6640625 217.1640625 C186.84035156 218.07285156 186.84035156 218.07285156 186 219 C185.34 219 184.68 219 184 219 C183.731875 219.5775 183.46375 220.155 183.1875 220.75 C181.97070811 223.05550043 180.69666121 225.02056192 179 227 C178.34 227 177.68 227 177 227 C176.65775391 227.81984375 176.65775391 227.81984375 176.30859375 228.65625 C174.60840578 231.70136278 172.44710264 233.95459919 170.0625 236.5 C169.06742406 237.56614099 168.07264082 238.63255524 167.078125 239.69921875 C166.56830078 240.24368652 166.05847656 240.7881543 165.53320312 241.34912109 C164.04229569 242.95445805 162.57245408 244.57632854 161.109375 246.20703125 C160.40542603 246.98820312 160.40542603 246.98820312 159.68725586 247.78515625 C158.39005953 249.22633193 157.09534082 250.6697366 155.80078125 252.11328125 C153.72052351 254.33704484 151.51152531 256.33121036 149.203125 258.31640625 C143.92159066 262.8639622 139.11989751 267.86292732 134.26757812 272.859375 C131.03369144 276.14328541 127.89493378 279.20879129 124.09765625 281.8359375 C120.85672383 283.82013658 120.85672383 283.82013658 119 287 C118.01 287 117.02 287 116 287 C115.34 288.32 114.68 289.64 114 291 C113.34 291 112.68 291 112 291 C111.76410156 291.58265625 111.52820313 292.1653125 111.28515625 292.765625 C109.71219676 295.50037524 107.94885998 296.84781185 105.4375 298.75 C100.42761178 302.63536655 95.7049597 306.7542721 91 311 C88.36604078 313.37345776 85.69770855 315.69913746 83 318 C82.41234863 318.50289551 81.82469727 319.00579102 81.21923828 319.52392578 C79.15665556 321.27881091 77.07985463 323.015633 75 324.75 C74.33540771 325.3174292 73.67081543 325.8848584 72.98608398 326.46948242 C67.98146525 330.60175336 63.13006536 333.70771845 56.4609375 334.1796875 C55.77257812 334.07914063 55.08421875 333.97859375 54.375 333.875 C53.68148437 333.78992188 52.98796875 333.70484375 52.2734375 333.6171875 C46.67909913 332.09844959 42.21173063 328.87471666 37.625 325.4375 C36.56539062 324.65246094 35.50578125 323.86742187 34.4140625 323.05859375 C33.21910156 322.03958984 33.21910156 322.03958984 32 321 C32 320.34 32 319.68 32 319 C30.68 318.67 29.36 318.34 28 318 C28 317.34 28 316.68 28 316 C27.44570313 315.75378906 26.89140625 315.50757813 26.3203125 315.25390625 C18.50698808 311.03155416 11.84512444 304.04846883 5.3125 298.09765625 C3.33615628 296.30492554 1.3354327 294.55204773 -0.6875 292.8125 C-5.36341193 288.74607557 -9.86112299 284.48727682 -14.36987305 280.23754883 C-17.38998438 277.39929023 -20.43291418 274.61906386 -23.58984375 271.93359375 C-29.39034302 266.88998718 -34.75871673 261.39008846 -40.18188477 255.94848633 C-42.05829475 254.06671726 -43.93998969 252.19035262 -45.82226562 250.31445312 C-51.76117821 244.37883407 -57.58575659 238.42509418 -63 232 C-64.14259685 230.70546949 -65.28808372 229.41347934 -66.4375 228.125 C-69 225.24804178 -69 225.24804178 -69 223 C-69.99 222.67 -70.98 222.34 -72 222 C-76 217.54285714 -76 217.54285714 -76 215 C-76.99 214.67 -77.98 214.34 -79 214 C-80.97265625 211.890625 -80.97265625 211.890625 -83.0625 209.25 C-83.75472656 208.38890625 -84.44695312 207.5278125 -85.16015625 206.640625 C-86.90442639 204.13717146 -88.00347408 201.8708208 -89 199 C-89.66 199 -90.32 199 -91 199 C-92.2265625 197.41796875 -92.2265625 197.41796875 -93.625 195.1875 C-95.9562418 191.55417437 -98.40748782 188.07671641 -101 184.625 C-104.87998394 179.32605051 -108.00884237 173.83661418 -111 168 C-111.41894531 167.23558594 -111.83789062 166.47117187 -112.26953125 165.68359375 C-116.45143732 157.83754141 -119.24756051 149.43196033 -122 141 C-122.36480469 139.89398438 -122.72960937 138.78796875 -123.10546875 137.6484375 C-124.27221149 132.8897575 -124.72058552 128.18794122 -125.125 123.3125 C-125.2502002 121.83450928 -125.2502002 121.83450928 -125.37792969 120.32666016 C-125.92853287 113.52502537 -126.39538385 106.82247452 -126 100 C-125.95891113 99.27635254 -125.91782227 98.55270508 -125.87548828 97.80712891 C-125.143471 86.10186856 -123.2821943 75.93016879 -119 65 C-118.72671875 64.17113281 -118.4534375 63.34226562 -118.171875 62.48828125 C-112.29432919 45.5183083 -100.10660255 29.92316615 -86 19 C-85.34 19 -84.68 19 -84 19 C-83.80019531 18.42121094 -83.60039062 17.84242188 -83.39453125 17.24609375 C-81.46680147 14.14120685 -78.8123341 12.77149194 -75.6875 11.0625 C-75.06593018 10.71550049 -74.44436035 10.36850098 -73.80395508 10.01098633 C-67.76067344 6.72125663 -61.49734859 4.25138693 -55 2 C-54.17628906 1.69191406 -53.35257812 1.38382812 -52.50390625 1.06640625 C-36.78200589 -4.62835489 -16.11366419 -3.6040663 0 0 Z M-52 41 C-52.88945312 41.45632813 -53.77890625 41.91265625 -54.6953125 42.3828125 C-70.90484694 51.0576398 -81.27959847 67.96371382 -87 85 C-88.0688806 89.32995614 -88.61387182 93.56224515 -89 98 C-89.14308594 99.0725 -89.28617187 100.145 -89.43359375 101.25 C-91.64941373 120.98678828 -86.12902394 141.45941786 -74.2109375 157.296875 C-73 159 -73 159 -71.61328125 161.34375 C-66.93170525 169.05191388 -61.0996699 176.06266312 -55.0390625 182.71484375 C-52.73932689 185.29213366 -50.55489347 187.9456995 -48.375 190.625 C-47.62863281 191.54152344 -46.88226563 192.45804688 -46.11328125 193.40234375 C-44.79785658 195.01927056 -43.48270334 196.63641828 -42.16796875 198.25390625 C-40.82297318 199.87379142 -39.41801892 201.44363777 -38 203 C-37.34 203 -36.68 203 -36 203 C-35.01 204.98 -35.01 204.98 -34 207 C-33.34 207 -32.68 207 -32 207 C-31.773125 207.556875 -31.54625 208.11375 -31.3125 208.6875 C-29.62971908 211.65239972 -27.43891488 213.616515 -25 216 C-24.01162523 217.15887608 -23.03280675 218.32595431 -22.0625 219.5 C-20.12284279 221.8017927 -18.34314724 223.5473773 -16 225.5 C-13.67934862 227.43387615 -12.00899272 229.08365751 -10.125 231.375 C-6.25251632 236.03424158 -1.83623466 241.05458845 4 243 C5.1875 245.0625 5.1875 245.0625 6 247 C6.66 247 7.32 247 8 247 C8.2578125 247.59425781 8.515625 248.18851563 8.78125 248.80078125 C10.10696947 251.19302503 11.40378864 252.44781639 13.5 254.1875 C16.7934253 256.97609368 20.04119067 259.8014703 23.25 262.6875 C24.05953125 263.41324219 24.8690625 264.13898438 25.703125 264.88671875 C27.21686188 266.27945966 28.68814827 267.72000699 30.109375 269.20703125 C31.97044074 271.22534278 31.97044074 271.22534278 35 272 C36.37892529 273.64798388 37.7559339 275.29762641 39.12109375 276.95703125 C42.65102431 280.79518859 46.85707965 283.85520898 51 287 C51.65742188 287.61359375 52.31484375 288.2271875 52.9921875 288.859375 C54.96411079 290.26752279 54.96411079 290.26752279 57.31640625 289.55078125 C60.90053938 287.47960097 63.85309225 284.93325373 66.9375 282.1875 C68.13379577 281.13895907 69.33040751 280.09077851 70.52734375 279.04296875 C71.10339355 278.5329834 71.67944336 278.02299805 72.27294922 277.49755859 C73.96283511 276.03222638 75.69487705 274.63519703 77.44140625 273.23828125 C78.28574219 272.49964844 79.13007812 271.76101563 80 271 C80 270.34 80 269.68 80 269 C80.59312988 268.72454346 81.18625977 268.44908691 81.79736328 268.1652832 C83.89216127 267.05705101 85.46383004 265.90806772 87.2421875 264.35546875 C87.83386719 263.84306641 88.42554688 263.33066406 89.03515625 262.80273438 C89.64230469 262.26970703 90.24945312 261.73667969 90.875 261.1875 C92.08039367 260.13893712 93.28611986 259.09075636 94.4921875 258.04296875 C95.37040161 257.27617798 95.37040161 257.27617798 96.26635742 256.49389648 C97.9213064 255.06781104 99.60160091 253.67940461 101.29296875 252.296875 C104.10725728 250.04374771 104.10725728 250.04374771 106.4375 247.0625 C108.42360266 244.68886511 110.1533727 242.94116254 112.5 241 C114.79926074 239.096311 116.50354059 237.39316903 118.4375 235.0625 C120.44073624 232.6683884 122.21137703 230.88370929 124.5625 228.8984375 C129.45079061 224.67014113 134.0049345 220.14188944 138.5625 215.5625 C139.37396484 214.75490234 140.18542969 213.94730469 141.02148438 213.11523438 C145.35518894 208.77453432 149.53621428 204.36495138 153.51367188 199.69458008 C154.92366647 198.08702875 156.39479139 196.60414429 157.9375 195.125 C160.23215846 193.25436301 160.23215846 193.25436301 160 191 C160.66 191 161.32 191 162 191 C163.45928542 189.21675916 164.84228846 187.37079334 166.1875 185.5 C168.92423979 181.74147764 171.70177983 178.08584451 174.8125 174.625 C179.82977722 169.45476469 179.82977722 169.45476469 182 163 C182.66 163 183.32 163 184 163 C184.59748047 161.89591797 184.59748047 161.89591797 185.20703125 160.76953125 C185.73683594 159.79371094 186.26664063 158.81789063 186.8125 157.8125 C187.33457031 156.84957031 187.85664062 155.88664062 188.39453125 154.89453125 C189.4024476 153.077339 190.44596639 151.27898328 191.5390625 149.51171875 C193.14629467 146.74848269 194.35807841 143.96008316 195.5625 141 C195.97628906 139.989375 196.39007812 138.97875 196.81640625 137.9375 C197.20699219 136.968125 197.59757812 135.99875 198 135 C198.53560547 133.77796875 198.53560547 133.77796875 199.08203125 132.53125 C202.4242282 123.31531969 202.49052351 112.68783937 202 103 C201.94328125 101.76636719 201.8865625 100.53273438 201.828125 99.26171875 C200.83317189 87.28674735 196.33073911 77.66147822 191 67 C190.34 67 189.68 67 189 67 C188.77183594 66.29488281 188.54367187 65.58976562 188.30859375 64.86328125 C186.74252449 61.43662821 184.60312597 58.91349919 182.0625 56.1875 C181.33812744 55.40354858 181.33812744 55.40354858 180.59912109 54.60375977 C173.83118768 47.48221223 165.34751136 40.8307711 156.0625 37.375 C155.12083984 37.01535156 155.12083984 37.01535156 154.16015625 36.6484375 C141.08756007 32.72429471 122.93734662 32.69294891 110.53125 38.5625 C106.03214665 41.10223484 106.03214665 41.10223484 101.68359375 43.88671875 C100 45 100 45 97.96484375 45.9375 C95.75578104 47.13206274 94.66822335 48.34641601 93.125 50.3125 C91.18089801 52.68050393 89.45070866 54.45579494 87.0625 56.4375 C82.42686555 60.31629617 78.69594227 64.93063925 74.87109375 69.59765625 C70.23768905 75.06910284 66.17554248 79.40028294 59 81 C55.30323944 81.27809612 51.69697835 81.24876864 48 81 C48 80.34 48 79.68 48 79 C47.01 78.67 46.02 78.34 45 78 C43.28641357 76.38161281 41.6292274 74.70328319 40 73 C38.85519064 71.87395801 37.70929935 70.74901525 36.5625 69.625 C33.58519629 66.66719828 30.88690965 63.55765449 28.26171875 60.28515625 C27.84535156 59.86105469 27.42898438 59.43695313 27 59 C26.34 59 25.68 59 25 59 C24.74863281 58.41734375 24.49726563 57.8346875 24.23828125 57.234375 C18.43405359 46.7611314 4.0393105 39.62796442 -6.921875 35.80273438 C-12.51790291 34.34336415 -18.05751539 34.32268906 -23.8125 34.375 C-25.04919434 34.38192871 -26.28588867 34.38885742 -27.56005859 34.39599609 C-37.02853943 34.6220606 -43.8458259 35.98737739 -52 41 Z " fill="#08090A" transform="translate(456,329)"/>
<path d="M0 0 C0.66 0 1.32 0 2 0 C0.62313063 2.9655648 -1.04351066 5.39134755 -3 8 C-3.69580267 9.31836295 -4.37224433 10.64791086 -5 12 C-5.66 12 -6.32 12 -7 12 C-7.20625 12.556875 -7.4125 13.11375 -7.625 13.6875 C-9.14858093 16.24988611 -10.98491929 17.69371939 -13.30078125 19.52734375 C-15.18603771 21.16123268 -16.75388056 22.91686605 -18.375 24.8125 C-20.88726793 27.74162654 -23.4441737 30.5984299 -26.125 33.375 C-26.74632812 34.02210938 -27.36765625 34.66921875 -28.0078125 35.3359375 C-30.22077805 37.18441461 -32.32630908 37.9737348 -35 39 C-35.70151152 40.3153341 -36.36525925 41.65117592 -37 43 C-40.08089576 45.74782595 -43.30214281 48.1510714 -47 50 C-47.99 49.67 -48.98 49.34 -50 49 C-44.25 44 -44.25 44 -42 44 C-41.62681641 43.12021484 -41.62681641 43.12021484 -41.24609375 42.22265625 C-39.82588804 39.68943667 -38.28816254 38.29014647 -36.0625 36.4375 C-33.11693957 33.96809867 -33.11693957 33.96809867 -30.37109375 31.28515625 C-29 30 -29 30 -27 30 C-26.65666626 29.16662109 -26.65666626 29.16662109 -26.30639648 28.31640625 C-24.63285652 25.34900815 -22.52965125 23.32359173 -20.09765625 20.9375 C-19.61928818 20.4643335 -19.1409201 19.99116699 -18.64805603 19.50366211 C-17.12423439 17.99758586 -15.59388501 16.49838206 -14.0625 15 C-12.53555915 13.50077789 -11.01014228 12.00008352 -9.48765564 10.49633789 C-8.10450037 9.1309532 -6.7165577 7.77042327 -5.32836914 6.41015625 C-2.99712877 4.10754767 -2.99712877 4.10754767 -1.31030273 1.68359375 C-0.87790283 1.12800781 -0.44550293 0.57242188 0 0 Z " fill="#111111" transform="translate(654,684)"/>
<path d="M0 0 C0.99 0.9590625 0.99 0.9590625 2 1.9375 C1.34 2.2675 0.68 2.5975 0 2.9375 C-0.84470856 2.48046188 -0.84470856 2.48046188 -1.70648193 2.01419067 C-4.80132533 0.56131831 -7.28230468 0.69780483 -10.69628906 0.71044922 C-11.36011597 0.71015717 -12.02394287 0.70986511 -12.70788574 0.70956421 C-14.89393351 0.71095342 -17.07963704 0.72649497 -19.265625 0.7421875 C-20.78448297 0.74591909 -22.30334335 0.74876537 -23.82220459 0.75076294 C-27.81382937 0.7583879 -31.80530789 0.77802656 -35.796875 0.8001709 C-39.87237571 0.82065386 -43.94790012 0.82976989 -48.0234375 0.83984375 C-56.01569201 0.86127359 -64.00782779 0.89539574 -72 0.9375 C-68.2964278 -1.53154813 -65.64367718 -1.24155559 -61.375 -1.125 C-52.5479368 -1.00471601 -43.74243157 -1.17053499 -34.91998291 -1.43380737 C-33.4382248 -1.47774118 -31.95641143 -1.51985152 -30.47454834 -1.56008911 C-28.36178363 -1.61770781 -26.24926625 -1.68104174 -24.13671875 -1.74609375 C-22.29146606 -1.80108032 -22.29146606 -1.80108032 -20.40893555 -1.85717773 C-4.12771702 -2.83780545 -4.12771702 -2.83780545 0 0 Z " fill="#2F2F2F" transform="translate(770,231.0625)"/>
<path d="M0 0 C0.66 0.33 1.32 0.66 2 1 C1.04882866 2.1725131 0.08882991 3.33787015 -0.875 4.5 C-1.40867187 5.1496875 -1.94234375 5.799375 -2.4921875 6.46875 C-2.98976563 6.9740625 -3.48734375 7.479375 -4 8 C-4.66 8 -5.32 8 -6 8 C-6.20109375 8.52980469 -6.4021875 9.05960938 -6.609375 9.60546875 C-8.61676586 13.06201536 -11.38691696 15.55135705 -14.25 18.3125 C-18.73867465 22.71265519 -22.99333338 27.14982462 -27 32 C-28.5234375 33.6796875 -28.5234375 33.6796875 -30 35 C-30.66 35 -31.32 35 -32 35 C-32 35.66 -32 36.32 -32 37 C-33.32 36.67 -34.64 36.34 -36 36 C-35.47535156 35.54753906 -34.95070313 35.09507812 -34.41015625 34.62890625 C-28.50511565 29.43129148 -22.8813253 23.99179635 -17.3125 18.4375 C-16.60037354 17.72988525 -15.88824707 17.02227051 -15.15454102 16.29321289 C-11.08236468 12.20969476 -7.18841808 8.02690162 -3.43432617 3.64868164 C-2.33804651 2.38856648 -1.18104177 1.18104177 0 0 Z " fill="#212222" transform="translate(612,525)"/>
<path d="M0 0 C0.66 0.33 1.32 0.66 2 1 C-1.66666667 4.66666667 -5.33333333 8.33333333 -9 12 C-9.66 11.67 -10.32 11.34 -11 11 C-7.33333333 7.33333333 -3.66666667 3.66666667 0 0 Z M-13 12 C-12.34 12.33 -11.68 12.66 -11 13 C-12.61886415 14.67262717 -14.2452729 16.33795537 -15.875 18 C-17.23238281 19.3921875 -17.23238281 19.3921875 -18.6171875 20.8125 C-21 23 -21 23 -23 23 C-23.20625 23.763125 -23.4125 24.52625 -23.625 25.3125 C-25.43277055 28.84586971 -27.40468559 29.50195233 -31 31 C-31.66 31.33 -32.32 31.66 -33 32 C-32.34 30.68 -31.68 29.36 -31 28 C-30.34 28 -29.68 28 -29 28 C-28.34 26.68 -27.68 25.36 -27 24 C-26.34 24 -25.68 24 -25 24 C-25 23.34 -25 22.68 -25 22 C-23.23947136 20.41929472 -21.41580202 18.90833714 -19.5625 17.4375 C-18.55316406 16.63183594 -17.54382813 15.82617188 -16.50390625 14.99609375 C-15.67761719 14.33738281 -14.85132813 13.67867187 -14 13 C-13.67 12.67 -13.34 12.34 -13 12 Z " fill="#232323" transform="translate(561,576)"/>
<path d="M0 0 C0 0.66 0 1.32 0 2 C-29.77352368 18.11495733 -29.77352368 18.11495733 -41 20 C-39.4233474 16.8466948 -36.69788099 16.44378425 -33.5 15.125 C-32.21857639 14.59025958 -30.9373263 14.05510317 -29.65625 13.51953125 C-28.4496875 13.01808594 -27.243125 12.51664063 -26 12 C-18.41097975 8.71796682 -11.11919293 5.11973878 -3.953125 0.98828125 C-2 0 -2 0 0 0 Z " fill="#262727" transform="translate(463,193)"/>
<path d="M0 0 C10.67988521 0.5300471 21.34372444 1.10081696 32 2 C32 2.33 32 2.66 32 3 C21.69339617 4.32378398 11.36776236 4.09139066 1 4 C0.67 2.68 0.34 1.36 0 0 Z " fill="#1B1C1C" transform="translate(259,229)"/>
<path d="M0 0 C0 3.61326121 -1.04147902 4.40246143 -3.50585938 6.87207031 C-3.99892578 7.34741211 -4.49199219 7.82275391 -5 8.3125 C-5.49822266 8.79944336 -5.99644531 9.28638672 -6.50976562 9.78808594 C-15.06969572 18.03484786 -15.06969572 18.03484786 -19 20 C-19.99 19.67 -20.98 19.34 -22 19 C-20.42617053 17.34507626 -18.84057098 15.70133976 -17.25 14.0625 C-16.36828125 13.14597656 -15.4865625 12.22945312 -14.578125 11.28515625 C-12.01743939 9.01545764 -11.14543513 8.71025955 -8 8 C-5.79850515 6.1605397 -5.79850515 6.1605397 -3.75 3.9375 C-3.04359375 3.20402344 -2.3371875 2.47054687 -1.609375 1.71484375 C-1.07828125 1.14894531 -0.5471875 0.58304688 0 0 Z " fill="#161616" transform="translate(595,594)"/>
<path d="M0 0 C2.5 1.375 2.5 1.375 5 3 C5 3.66 5 4.32 5 5 C5.56460937 5.24363281 6.12921875 5.48726562 6.7109375 5.73828125 C9.42689068 7.23529981 11.37279238 9.05633937 13.625 11.1875 C18.45005104 15.62482373 23.53929627 19.38664072 29 23 C28.67 23.66 28.34 24.32 28 25 C21.47183245 20.23620205 15.10253853 15.35128925 8.9375 10.125 C8.39005127 9.6611792 7.84260254 9.1973584 7.27856445 8.71948242 C1.65418679 3.91175912 1.65418679 3.91175912 0 2 C0 1.34 0 0.68 0 0 Z " fill="#202020" transform="translate(411,727)"/>
<path d="M0 0 C0.33 0.99 0.66 1.98 1 3 C0.05125 3.7425 -0.8975 4.485 -1.875 5.25 C-4.40559476 7.34408191 -5.57017743 9.04503335 -7 12 C-10.08089576 14.74782595 -13.30214281 17.1510714 -17 19 C-17.99 18.67 -18.98 18.34 -20 18 C-14.25 13 -14.25 13 -12 13 C-11.7525 12.41476562 -11.505 11.82953125 -11.25 11.2265625 C-9.81592202 8.67211111 -8.24285666 7.24679581 -6 5.375 C-3.92339664 3.6266832 -1.92037235 1.92037235 0 0 Z " fill="#292829" transform="translate(624,715)"/>
<path d="M0 0 C3.79379058 1.49041773 5.68343758 3.69062512 8 7 C8 7.66 8 8.32 8 9 C8.99 9.33 9.98 9.66 11 10 C12.83203125 12.00390625 12.83203125 12.00390625 14.8125 14.5625 C15.50988281 15.45839844 16.20726562 16.35429688 16.92578125 17.27734375 C19.63750279 20.83679744 22.34418719 24.39855688 25 28 C14.81431126 23.8236356 6.45352567 9.71103275 0 1 C0 0.67 0 0.34 0 0 Z " fill="#252526" transform="translate(389,499)"/>
<path d="M0 0 C1.98 0.99 1.98 0.99 4 2 C4 2.66 4 3.32 4 4 C4.556875 4.185625 5.11375 4.37125 5.6875 4.5625 C8.5596443 6.347887 9.84091491 8.43130551 11.71484375 11.19921875 C13.54211396 13.75961865 15.72372803 15.83754163 18 18 C19.66666667 19.66666667 21.33333333 21.33333333 23 23 C22.67 23.66 22.34 24.32 22 25 C5.67098897 9.08380105 5.67098897 9.08380105 0 1 C0 0.67 0 0.34 0 0 Z " fill="#252526" transform="translate(368,684)"/>
<path d="M0 0 C1.09957031 0.51949219 2.19914063 1.03898438 3.33203125 1.57421875 C4.82544277 2.27881132 6.31893803 2.9832264 7.8125 3.6875 C8.58480957 4.05182129 9.35711914 4.41614258 10.15283203 4.79150391 C15.3759415 7.25014202 20.61958421 9.65511004 25.8984375 11.9921875 C28 13 28 13 31 15 C27.05794743 16.31401752 26.02180444 15.3419026 22.34375 13.54296875 C21.23902344 13.00736328 20.13429688 12.47175781 18.99609375 11.91992188 C17.84238281 11.34822266 16.68867187 10.77652344 15.5 10.1875 C14.34628906 9.62740234 13.19257812 9.06730469 12.00390625 8.49023438 C3.52342046 4.34894697 3.52342046 4.34894697 0 2 C0 1.34 0 0.68 0 0 Z " fill="#272828" transform="translate(555,190)"/>
<path d="M0 0 C0.99 0.9590625 0.99 0.9590625 2 1.9375 C1.01 2.4325 1.01 2.4325 0 2.9375 C-0.59538574 2.63070312 -1.19077148 2.32390625 -1.80419922 2.0078125 C-4.45051871 0.71790093 -6.20252748 0.73593294 -9.1328125 0.8125 C-10.10347656 0.82796875 -11.07414063 0.8434375 -12.07421875 0.859375 C-13.08097656 0.88515625 -14.08773437 0.9109375 -15.125 0.9375 C-17.1273911 0.98838669 -19.13003057 1.03049816 -21.1328125 1.0625 C-22.01855957 1.08570313 -22.90430664 1.10890625 -23.81689453 1.1328125 C-26 0.9375 -26 0.9375 -28 -1.0625 C-25.33452288 -1.4290031 -22.66838699 -1.78090684 -20 -2.125 C-18.88431641 -2.2806543 -18.88431641 -2.2806543 -17.74609375 -2.43945312 C-11.44135555 -3.23439838 -5.44024972 -3.74017169 0 0 Z " fill="#181819" transform="translate(770,231.0625)"/>
<path d="M0 0 C0 0.66 0 1.32 0 2 C-1.72909406 3.19706512 -3.46043003 4.39112672 -5.20703125 5.5625 C-7.29588363 7.0654788 -7.29588363 7.0654788 -8.9375 10.25 C-11 13 -11 13 -13.01953125 13.6015625 C-15.25 13.875 -15.25 13.875 -19 14 C-18.01 13.67 -17.02 13.34 -16 13 C-15.32886284 11.6689113 -14.6627652 10.33527694 -14 9 C-12.125 7.296875 -12.125 7.296875 -10 5.75 C-9.29875 5.22921875 -8.5975 4.7084375 -7.875 4.171875 C-6 3 -6 3 -4 3 C-4 2.34 -4 1.68 -4 1 C-2 0 -2 0 0 0 Z " fill="#333434" transform="translate(604,735)"/>
<path d="M0 0 C4.49108752 1.42860919 7.46169316 3.93077292 10.8125 7.125 C11.31458984 7.59292969 11.81667969 8.06085938 12.33398438 8.54296875 C13.56189455 9.68901825 14.78178215 10.84365311 16 12 C18.49361571 10.79618552 20.68143083 9.54571278 23 8 C21.84826645 10.46800047 20.95216435 12.04783565 19 14 C13.89891662 13.91859973 10.87160671 10.76497695 7.25 7.5625 C6.66089844 7.05912109 6.07179688 6.55574219 5.46484375 6.03710938 C1.15223689 2.30447378 1.15223689 2.30447378 0 0 Z " fill="#2E2E2E" transform="translate(495,350)"/>
<path d="M0 0 C0.66 0.33 1.32 0.66 2 1 C0.54712339 2.33927721 -0.91247259 3.67126847 -2.375 5 C-3.59316406 6.11375 -3.59316406 6.11375 -4.8359375 7.25 C-7 9 -7 9 -9 9 C-9.2475 9.639375 -9.495 10.27875 -9.75 10.9375 C-11 13 -11 13 -13.125 13.75 C-14.053125 13.87375 -14.053125 13.87375 -15 14 C-13.45771856 9.59935696 -9.98573023 7.40404102 -6.375 4.75 C-5.76398438 4.29109375 -5.15296875 3.8321875 -4.5234375 3.359375 C-3.0209208 2.23248748 -1.51115591 1.11527563 0 0 Z " fill="#1B1B1B" transform="translate(500,167)"/>
<path d="M0 0 C0 3 0 3 -1.94140625 5.05078125 C-2.80636719 5.79714844 -3.67132813 6.54351562 -4.5625 7.3125 C-5.46871094 8.10140625 -6.37492187 8.8903125 -7.30859375 9.703125 C-8.19675781 10.46109375 -9.08492188 11.2190625 -10 12 C-10.73347656 12.63421875 -11.46695312 13.2684375 -12.22265625 13.921875 C-13.80820603 15.28928959 -15.4029773 16.64600249 -17 18 C-17.66 17.67 -18.32 17.34 -19 17 C-10.07749077 7.87822878 -10.07749077 7.87822878 -6 5 C-5.34 5 -4.68 5 -4 5 C-3.71125 4.360625 -3.4225 3.72125 -3.125 3.0625 C-2 1 -2 1 0 0 Z " fill="#313131" transform="translate(376,343)"/>
<path d="M0 0 C1.65 0 3.3 0 5 0 C5.66 1.32 6.32 2.64 7 4 C7.99 3.67 8.98 3.34 10 3 C10.33 3.99 10.66 4.98 11 6 C13.50447516 7.21869929 13.50447516 7.21869929 16 8 C16 8.66 16 9.32 16 10 C12.20950293 8.57250019 8.72877544 6.83763458 5.1875 4.875 C4.21167969 4.33617187 3.23585938 3.79734375 2.23046875 3.2421875 C1.49441406 2.83226562 0.75835937 2.42234375 0 2 C0 1.34 0 0.68 0 0 Z " fill="#202021" transform="translate(488,826)"/>
<path d="M0 0 C3.89917968 1.61537444 6.71293772 4.27924873 9.75 7.125 C10.25660156 7.59292969 10.76320313 8.06085937 11.28515625 8.54296875 C12.52719141 9.69126541 13.76411494 10.84508672 15 12 C14.34 12.66 13.68 13.32 13 14 C10.83031809 11.85714108 8.66416525 9.71091768 6.5 7.5625 C5.87996094 6.95083984 5.25992187 6.33917969 4.62109375 5.70898438 C4.03457031 5.12568359 3.44804687 4.54238281 2.84375 3.94140625 C2.02680664 3.13231812 2.02680664 3.13231812 1.19335938 2.30688477 C0 1 0 1 0 0 Z " fill="#212122" transform="translate(396,714)"/>
<path d="M0 0 C0.99 0.495 0.99 0.495 2 1 C2 1.99 2 2.98 2 4 C2.99 4.33 3.98 4.66 5 5 C6.38442 6.96498322 7.71203834 8.97048465 9 11 C10.31543279 12.68083079 11.64316249 14.3524116 13 16 C12.67 16.66 12.34 17.32 12 18 C0 4.89320388 0 4.89320388 0 0 Z " fill="#252627" transform="translate(350,660)"/>
<path d="M0 0 C5.28 0 10.56 0 16 0 C16 0.99 16 1.98 16 3 C10.72 2.67 5.44 2.34 0 2 C0 1.34 0 0.68 0 0 Z " fill="#272727" transform="translate(730,269)"/>
<path d="M0 0 C2.5 1.375 2.5 1.375 5 3 C5 3.66 5 4.32 5 5 C5.5775 5.2475 6.155 5.495 6.75 5.75 C9.3002997 7.16683317 11.01785701 8.87627537 13 11 C8.89253434 11 7.80245139 9.36039564 4.8125 6.625 C3.91144531 5.81289063 3.01039063 5.00078125 2.08203125 4.1640625 C0 2 0 2 0 0 Z " fill="#2A2A2B" transform="translate(411,727)"/>
<path d="M0 0 C1.89646998 0.11493757 3.79218332 0.24239642 5.6875 0.375 C6.74324219 0.44460937 7.79898438 0.51421875 8.88671875 0.5859375 C11.90677269 0.98760089 14.24078054 1.74069019 17 3 C17 3.33 17 3.66 17 4 C11.08739655 4.25706972 5.76081841 3.2982126 0 2 C0 1.34 0 0.68 0 0 Z " fill="#282829" transform="translate(643,223)"/>
<path d="M0 0 C3.95906817 1.43308135 7.28718181 3.33141949 10.8125 5.625 C11.78832031 6.25664062 12.76414062 6.88828125 13.76953125 7.5390625 C14.50558594 8.02117187 15.24164062 8.50328125 16 9 C15.67 9.66 15.34 10.32 15 11 C12.68368391 9.54744565 10.371983 8.08834588 8.0625 6.625 C7.40314453 6.2125 6.74378906 5.8 6.06445312 5.375 C1.11328125 2.2265625 1.11328125 2.2265625 0 0 Z " fill="#1F2020" transform="translate(535,178)"/>
<path d="M0 0 C0.33 1.32 0.66 2.64 1 4 C0.38125 4.2475 -0.2375 4.495 -0.875 4.75 C-3.35068687 6.20628639 -3.95125002 7.37812506 -5 10 C-5.66 9.01 -6.32 8.02 -7 7 C-4.69 4.69 -2.38 2.38 0 0 Z " fill="#1E1E1F" transform="translate(647,742)"/>
<path d="M0 0 C0 0.99 0 1.98 0 3 C-1.59915881 3.69906942 -3.20455045 4.38389468 -4.8125 5.0625 C-5.70582031 5.44535156 -6.59914063 5.82820313 -7.51953125 6.22265625 C-10 7 -10 7 -13 6 C-8.92263341 3.28175561 -4.85468785 0.93359382 0 0 Z " fill="#2D2E2E" transform="translate(560,331)"/>
<path d="M0 0 C5.71241466 0.38728235 8.73688282 0.87010523 13 5 C12.01 5.495 12.01 5.495 11 6 C9.66666667 5.33333333 8.33333333 4.66666667 7 4 C5.00889599 3.61709538 3.00899487 3.27395385 1 3 C0.67 2.01 0.34 1.02 0 0 Z " fill="#363636" transform="translate(759,228)"/>
<path d="M0 0 C0.33 0.99 0.66 1.98 1 3 C-1.64 5.31 -4.28 7.62 -7 10 C-7.66 9.67 -8.32 9.34 -9 9 C-6.03 6.03 -3.06 3.06 0 0 Z " fill="#4D4D4E" transform="translate(636,703)"/>
<path d="M0 0 C0.66 0 1.32 0 2 0 C2.83848804 1.45537568 3.67063934 2.91440373 4.5 4.375 C5.19609375 5.59316406 5.19609375 5.59316406 5.90625 6.8359375 C7 9 7 9 7 11 C7.66 11.33 8.32 11.66 9 12 C8.01 12 7.02 12 6 12 C4.02 8.04 2.04 4.08 0 0 Z " fill="#272727" transform="translate(318,613)"/>
<path d="M0 0 C0.33 0.99 0.66 1.98 1 3 C-0.28548409 4.33929505 -1.57858155 5.67128643 -2.875 7 C-3.59429688 7.7425 -4.31359375 8.485 -5.0546875 9.25 C-7 11 -7 11 -9 11 C-7.6618467 6.9855401 -5.23686108 5.64233558 -2 3 C-1.34 2.01 -0.68 1.02 0 0 Z " fill="#535454" transform="translate(573,564)"/>
<path d="M0 0 C4.83628305 0.99043705 9.47618873 1.95698846 14 4 C14 4.33 14 4.66 14 5 C8.57960425 5.40652968 4.92984325 4.03993514 0 2 C0 1.34 0 0.68 0 0 Z " fill="#292A29" transform="translate(618,330)"/>
<path d="M0 0 C4.66714289 1.83025211 8.18765077 3.6497537 12 7 C11.01 7.495 11.01 7.495 10 8 C7.6171875 6.85546875 7.6171875 6.85546875 4.875 5.1875 C3.96492188 4.64480469 3.05484375 4.10210938 2.1171875 3.54296875 C1.41851562 3.03378906 0.71984375 2.52460937 0 2 C0 1.34 0 0.68 0 0 Z " fill="#282929" transform="translate(486,782)"/>
<path d="M0 0 C0 0.66 0 1.32 0 2 C-1.45537568 2.83848804 -2.91440373 3.67063934 -4.375 4.5 C-5.59316406 5.19609375 -5.59316406 5.19609375 -6.8359375 5.90625 C-9 7 -9 7 -11 7 C-10 4 -10 4 -8.22265625 2.83203125 C-7.50980469 2.49558594 -6.79695313 2.15914062 -6.0625 1.8125 C-5.35222656 1.46832031 -4.64195312 1.12414062 -3.91015625 0.76953125 C-2 0 -2 0 0 0 Z " fill="#414142" transform="translate(463,193)"/>
<path d="M0 0 C0.33 0.99 0.66 1.98 1 3 C-0.25942386 4.19959375 -1.53295286 5.38439443 -2.8125 6.5625 C-3.87404297 7.55443359 -3.87404297 7.55443359 -4.95703125 8.56640625 C-5.63121094 9.03949219 -6.30539062 9.51257813 -7 10 C-7.99 9.67 -8.98 9.34 -10 9 C-9.44570313 8.51789062 -8.89140625 8.03578125 -8.3203125 7.5390625 C-7.59585938 6.90742187 -6.87140625 6.27578125 -6.125 5.625 C-5.40570312 4.99851562 -4.68640625 4.37203125 -3.9453125 3.7265625 C-2.5923402 2.52573166 -1.2791655 1.2791655 0 0 Z " fill="#3D3F3F" transform="translate(624,715)"/>
<path d="M0 0 C1.98 0.99 1.98 0.99 4 2 C4 2.66 4 3.32 4 4 C4.639375 4.2475 5.27875 4.495 5.9375 4.75 C8 6 8 6 8.62890625 8.078125 C8.81259766 9.02945313 8.81259766 9.02945313 9 10 C7.86800647 9.0919838 6.74467637 8.17316174 5.625 7.25 C4.99851562 6.73953125 4.37203125 6.2290625 3.7265625 5.703125 C1.91687682 3.91800519 0.99882545 2.32050356 0 0 Z " fill="#3A3B3B" transform="translate(368,684)"/>
<path d="M0 0 C0.66 0 1.32 0 2 0 C0.44298069 4.67105792 -2.08447373 8.08705685 -5 12 C-5.33 11.01 -5.66 10.02 -6 9 C-4.72641268 7.28724465 -3.38576923 5.62332967 -2 4 C-1.29114106 2.68861096 -0.60543548 1.36222983 0 0 Z " fill="#2F2F2F" transform="translate(690,636)"/>
<path d="M0 0 C0 3 0 3 -1.53125 4.60546875 C-2.1809375 5.12753906 -2.830625 5.64960937 -3.5 6.1875 C-4.1496875 6.71730469 -4.799375 7.24710938 -5.46875 7.79296875 C-5.9740625 8.19128906 -6.479375 8.58960938 -7 9 C-7.33 8.34 -7.66 7.68 -8 7 C-7.360625 6.38125 -6.72125 5.7625 -6.0625 5.125 C-3.96116416 3.17402388 -3.96116416 3.17402388 -3 1 C-2.01 0.67 -1.02 0.34 0 0 Z " fill="#030303" transform="translate(566,574)"/>
<path d="M0 0 C0.66 0 1.32 0 2 0 C4.43160605 3.36683915 5 4.73350364 5 9 C4.34 9 3.68 9 3 9 C0.56839395 5.63316085 0 4.26649636 0 0 Z " fill="#161616" transform="translate(348,499)"/>
<path d="M0 0 C2.97 1.65 5.94 3.3 9 5 C8.67 5.66 8.34 6.32 8 7 C5.125 6.3125 5.125 6.3125 2 5 C0.625 2.375 0.625 2.375 0 0 Z " fill="#1D1E1D" transform="translate(476,776)"/>
<path d="M0 0 C1.32 0.66 2.64 1.32 4 2 C-0.455 4.97 -0.455 4.97 -5 8 C-2.75 2.375 -2.75 2.375 0 0 Z " fill="#1A1A1A" transform="translate(612,772)"/>
<path d="M0 0 C1.98 1.65 3.96 3.3 6 5 C5.67 5.99 5.34 6.98 5 8 C3.0625 7.375 3.0625 7.375 1 6 C0.25 2.875 0.25 2.875 0 0 Z " fill="#1D1E1E" transform="translate(347,713)"/>
<path d="M0 0 C0.66 0 1.32 0 2 0 C0.34908222 4.29238623 -2.73754566 6.8793915 -6 10 C-6.66 9.67 -7.32 9.34 -8 9 C-6.71520959 7.49410612 -5.42195918 5.99542625 -4.125 4.5 C-3.04605469 3.24703125 -3.04605469 3.24703125 -1.9453125 1.96875 C-1.30335938 1.3190625 -0.66140625 0.669375 0 0 Z " fill="#2F3131" transform="translate(654,684)"/>
<path d="M0 0 C-0.99897713 2.99693138 -1.65130253 4.02709413 -4 6 C-4.66 6 -5.32 6 -6 6 C-6 6.66 -6 7.32 -6 8 C-7.32 7.67 -8.64 7.34 -10 7 C-8.71372289 5.82739389 -7.42080217 4.6620717 -6.125 3.5 C-5.04605469 2.52546875 -5.04605469 2.52546875 -3.9453125 1.53125 C-2 0 -2 0 0 0 Z " fill="#373738" transform="translate(586,554)"/>
<path d="M0 0 C3.94139078 1.66751148 6.7892812 4.22710649 10 7 C9.67 7.66 9.34 8.32 9 9 C7.49428343 7.88266271 5.99555708 6.75589965 4.5 5.625 C3.6646875 4.99851562 2.829375 4.37203125 1.96875 3.7265625 C1.3190625 3.15679688 0.669375 2.58703125 0 2 C0 1.34 0 0.68 0 0 Z " fill="#232322" transform="translate(497,608)"/>
<path d="M0 0 C0.99 0.33 1.98 0.66 3 1 C1.8803014 2.00593243 0.7540588 3.0045849 -0.375 4 C-1.00148438 4.556875 -1.62796875 5.11375 -2.2734375 5.6875 C-4 7 -4 7 -6 7 C-6 6.34 -6 5.68 -6 5 C-3.1875 2.3125 -3.1875 2.3125 0 0 Z " fill="#2D2F2E" transform="translate(542,593)"/>
<path d="M0 0 C3.26008643 3.16952847 6.22237877 6.39937989 9 10 C8.01 10 7.02 10 6 10 C4.39453125 8.3203125 4.39453125 8.3203125 2.8125 6.125 C2.01779297 5.04605469 2.01779297 5.04605469 1.20703125 3.9453125 C0 2 0 2 0 0 Z " fill="#1F2020" transform="translate(328,693)"/>
<path d="M0 0 C3 1 3 1 4.16796875 2.77734375 C4.50441406 3.49019531 4.84085937 4.20304688 5.1875 4.9375 C5.70376953 6.00291016 5.70376953 6.00291016 6.23046875 7.08984375 C7 9 7 9 7 11 C6.34 11 5.68 11 5 11 C4.35165346 9.730447 3.70642185 8.45930294 3.0625 7.1875 C2.70285156 6.47980469 2.34320313 5.77210938 1.97265625 5.04296875 C1 3 1 3 0 0 Z " fill="#292929" transform="translate(276,613)"/>
<path d="M0 0 C2.67927341 4.01891012 2.15601248 6.24161923 2 11 C-1.03333922 7.96666078 -0.6646334 5.2256192 -1 1 C-0.67 0.67 -0.34 0.34 0 0 Z " fill="#2B2C2C" transform="translate(233,466)"/>
<path d="M0 0 C0 0.99 0 1.98 0 3 C-4.43076923 5.09230769 -4.43076923 5.09230769 -7.3125 4.625 C-7.869375 4.41875 -8.42625 4.2125 -9 4 C-8.01 4 -7.02 4 -6 4 C-6 3.34 -6 2.68 -6 2 C-4.02 1.34 -2.04 0.68 0 0 Z " fill="#1F2020" transform="translate(594,744)"/>
<path d="M0 0 C0.66 0.33 1.32 0.66 2 1 C0.515 3.475 0.515 3.475 -1 6 C-2.32 5.67 -3.64 5.34 -5 5 C-3.35 3.35 -1.7 1.7 0 0 Z " fill="#0F1010" transform="translate(551,374)"/>
<path d="M0 0 C0.66 0.33 1.32 0.66 2 1 C-1.465 3.97 -1.465 3.97 -5 7 C-5.66 6.34 -6.32 5.68 -7 5 C-4.69 3.35 -2.38 1.7 0 0 Z " fill="#313131" transform="translate(500,167)"/>
<path d="M0 0 C3.76488042 1.72154788 6.15063897 3.99234114 9 7 C6 7 6 7 4.39453125 5.46875 C3.87246094 4.8190625 3.35039062 4.169375 2.8125 3.5 C2.28269531 2.8503125 1.75289063 2.200625 1.20703125 1.53125 C0.80871094 1.0259375 0.41039062 0.520625 0 0 Z " fill="#3D3F3F" transform="translate(396,714)"/>
<path d="M0 0 C2.475 0.495 2.475 0.495 5 1 C5.33 2.32 5.66 3.64 6 5 C3.5625 4.1875 3.5625 4.1875 1 3 C0.67 2.01 0.34 1.02 0 0 Z " fill="#151616" transform="translate(299,654)"/>
<path d="M0 0 C2.64 1.98 5.28 3.96 8 6 C7.34 6.66 6.68 7.32 6 8 C4.99403703 7.0479279 3.99538437 6.08812654 3 5.125 C2.443125 4.59132813 1.88625 4.05765625 1.3125 3.5078125 C0 2 0 2 0 0 Z " fill="#2D2E2D" transform="translate(480,592)"/>
<path d="M0 0 C3.057952 1.73559438 5.63379989 3.38472619 8 6 C4.06830895 6 2.83572772 4.60580385 0 2 C0 1.34 0 0.68 0 0 Z " fill="#373739" transform="translate(487,343)"/>
</svg>
